M48
; DRILL file {KiCad 9.0.7} date 2026-05-29T17:07:14+0200
; FORMAT={-:-/ absolute / metric / decimal}
; #@! TF.CreationDate,2026-05-29T17:07:14+02:00
; #@! TF.GenerationSoftware,Kicad,Pcbnew,9.0.7
; #@! TF.FileFunction,Plated,1,2,PTH
FMAT,2
METRIC
; #@! TA.AperFunction,Plated,PTH,ViaDrill
T1C0.400
; #@! TA.AperFunction,Plated,PTH,ViaDrill
T2C0.800
; #@! TA.AperFunction,Plated,PTH,ComponentDrill
T3C0.800
; #@! TA.AperFunction,Plated,PTH,ViaDrill
T4C0.900
; #@! TA.AperFunction,Plated,PTH,ComponentDrill
T5C1.000
%
G90
G05
T1
X121.565Y-63.455
X121.83Y-65.55
X125.85Y-67.6
X126.59Y-72.04
X129.47Y-59.48
X129.64Y-53.95
X132.83Y-59.71
X133.86Y-84.25
X135.55Y-59.49
X137.55Y-65.97
X138.38Y-52.06
X140.26Y-91.46
T2
X135.15Y-94.025
X143.425Y-94.5
X146.775Y-87.6
X146.95Y-82.05
X153.075Y-83.425
X158.55Y-83.525
T3
X1.075Y-1.525
X8.695Y-1.525
X115.48Y-67.0
X115.59Y-73.685
X115.59Y-78.765
X115.89Y-89.525
X115.89Y-97.075
X118.02Y-67.0
X118.13Y-73.685
X118.13Y-78.765
X120.67Y-73.685
X120.67Y-78.765
X123.21Y-73.685
X123.21Y-78.765
X123.51Y-89.525
X123.51Y-97.075
X127.66Y-56.6
X127.66Y-61.68
X130.2Y-56.6
X130.2Y-61.68
X132.74Y-56.6
X132.74Y-61.68
X135.28Y-56.6
X135.28Y-61.68
X137.7Y-75.05
X137.7Y-82.67
X142.925Y-72.84
X142.925Y-80.46
X143.775Y-83.925
X143.775Y-91.545
X146.905Y-91.85
X149.445Y-91.85
X160.98Y-97.45
X163.52Y-97.45
T4
X131.525Y-69.975
X131.525Y-74.125
T5
X118.796Y-49.2
X121.336Y-49.2
X123.876Y-49.2
X126.416Y-49.2
X127.94Y-97.46
X128.956Y-49.2
X129.375Y-89.15
X130.48Y-97.46
X131.125Y-78.65
X131.125Y-82.65
X131.496Y-49.2
X133.02Y-97.46
X133.375Y-89.15
X134.036Y-49.2
X135.56Y-97.46
X136.576Y-49.2
X138.1Y-97.46
X139.116Y-49.2
X140.64Y-97.46
X140.725Y-56.785
X140.725Y-59.325
X140.725Y-61.865
X141.656Y-49.2
X143.18Y-97.46
X145.72Y-49.2
X145.72Y-97.46
X148.26Y-49.2
X150.8Y-49.2
X150.8Y-97.46
X151.3Y-56.365
X151.3Y-58.905
X151.3Y-61.445
X151.3Y-63.985
X153.07Y-90.05
X153.34Y-49.2
X153.34Y-97.46
X155.61Y-90.05
X155.88Y-49.2
X155.88Y-97.46
X158.15Y-90.05
X158.42Y-49.2
X158.42Y-97.46
X160.69Y-90.05
X160.96Y-49.2
X160.96Y-97.46
X163.5Y-49.2
X163.5Y-97.46
X166.425Y-69.66
X166.425Y-72.2
X166.425Y-74.74
X166.425Y-77.28
X166.425Y-79.82
M30
