%TF.GenerationSoftware,KiCad,Pcbnew,9.0.7*%
%TF.CreationDate,2026-05-29T17:07:14+02:00*%
%TF.ProjectId,Evia_Rodriguez_MOSH,45766961-5f52-46f6-9472-696775657a5f,rev?*%
%TF.SameCoordinates,Original*%
%TF.FileFunction,Drillmap*%
%TF.FilePolarity,Positive*%
%FSLAX45Y45*%
G04 Gerber Fmt 4.5, Leading zero omitted, Abs format (unit mm)*
G04 Created by KiCad (PCBNEW 9.0.7) date 2026-05-29 17:07:14*
%MOMM*%
%LPD*%
G01*
G04 APERTURE LIST*
%ADD10C,0.150000*%
%ADD11C,0.200000*%
%ADD12C,0.100000*%
G04 APERTURE END LIST*
D10*
X16858000Y-9619000D02*
X16858000Y-6190000D01*
X16604000Y-5936000D02*
X16858000Y-6190000D01*
X10000000Y-9923800D02*
X10000000Y-4742200D01*
X16527800Y-10000000D02*
X10076200Y-10000000D01*
X10076200Y-4666000D02*
X16350000Y-4666000D01*
X10076200Y-10000000D02*
G75*
G02*
X10000000Y-9923800I0J76200D01*
G01*
X16858000Y-9619000D02*
X16604000Y-9873000D01*
X16350000Y-4666000D02*
X16604000Y-4920000D01*
X16604000Y-9923800D02*
G75*
G02*
X16527800Y-10000000I-76200J0D01*
G01*
X16604000Y-4920000D02*
X16604000Y-5936000D01*
X16604000Y-9873000D02*
X16604000Y-9923800D01*
X10000000Y-4742200D02*
G75*
G02*
X10076200Y-4666000I76200J0D01*
G01*
D11*
D12*
X12136500Y-6325500D02*
X12176500Y-6365500D01*
X12176500Y-6325500D02*
X12136500Y-6365500D01*
X12163000Y-6535000D02*
X12203000Y-6575000D01*
X12203000Y-6535000D02*
X12163000Y-6575000D01*
X12565000Y-6740000D02*
X12605000Y-6780000D01*
X12605000Y-6740000D02*
X12565000Y-6780000D01*
X12639000Y-7184000D02*
X12679000Y-7224000D01*
X12679000Y-7184000D02*
X12639000Y-7224000D01*
X12927000Y-5928000D02*
X12967000Y-5968000D01*
X12967000Y-5928000D02*
X12927000Y-5968000D01*
X12944000Y-5375000D02*
X12984000Y-5415000D01*
X12984000Y-5375000D02*
X12944000Y-5415000D01*
X13263000Y-5951000D02*
X13303000Y-5991000D01*
X13303000Y-5951000D02*
X13263000Y-5991000D01*
X13366000Y-8405000D02*
X13406000Y-8445000D01*
X13406000Y-8405000D02*
X13366000Y-8445000D01*
X13535000Y-5929000D02*
X13575000Y-5969000D01*
X13575000Y-5929000D02*
X13535000Y-5969000D01*
X13735000Y-6577000D02*
X13775000Y-6617000D01*
X13775000Y-6577000D02*
X13735000Y-6617000D01*
X13818000Y-5186000D02*
X13858000Y-5226000D01*
X13858000Y-5186000D02*
X13818000Y-5226000D01*
X14006000Y-9126000D02*
X14046000Y-9166000D01*
X14046000Y-9126000D02*
X14006000Y-9166000D01*
X13555000Y-9402500D02*
G75*
G02*
X13475000Y-9402500I-40000J0D01*
G01*
X13475000Y-9402500D02*
G75*
G02*
X13555000Y-9402500I40000J0D01*
G01*
X14382500Y-9450000D02*
G75*
G02*
X14302500Y-9450000I-40000J0D01*
G01*
X14302500Y-9450000D02*
G75*
G02*
X14382500Y-9450000I40000J0D01*
G01*
X14717500Y-8760000D02*
G75*
G02*
X14637500Y-8760000I-40000J0D01*
G01*
X14637500Y-8760000D02*
G75*
G02*
X14717500Y-8760000I40000J0D01*
G01*
X14735000Y-8205000D02*
G75*
G02*
X14655000Y-8205000I-40000J0D01*
G01*
X14655000Y-8205000D02*
G75*
G02*
X14735000Y-8205000I40000J0D01*
G01*
X15347500Y-8342500D02*
G75*
G02*
X15267500Y-8342500I-40000J0D01*
G01*
X15267500Y-8342500D02*
G75*
G02*
X15347500Y-8342500I40000J0D01*
G01*
X15895000Y-8352500D02*
G75*
G02*
X15815000Y-8352500I-40000J0D01*
G01*
X15815000Y-8352500D02*
G75*
G02*
X15895000Y-8352500I40000J0D01*
G01*
X107500Y-112500D02*
X107500Y-192500D01*
X67500Y-152500D02*
X147500Y-152500D01*
X869500Y-112500D02*
X869500Y-192500D01*
X829500Y-152500D02*
X909500Y-152500D01*
X11548000Y-6660000D02*
X11548000Y-6740000D01*
X11508000Y-6700000D02*
X11588000Y-6700000D01*
X11559000Y-7328500D02*
X11559000Y-7408500D01*
X11519000Y-7368500D02*
X11599000Y-7368500D01*
X11559000Y-7836500D02*
X11559000Y-7916500D01*
X11519000Y-7876500D02*
X11599000Y-7876500D01*
X11589000Y-8912500D02*
X11589000Y-8992500D01*
X11549000Y-8952500D02*
X11629000Y-8952500D01*
X11589000Y-9667500D02*
X11589000Y-9747500D01*
X11549000Y-9707500D02*
X11629000Y-9707500D01*
X11802000Y-6660000D02*
X11802000Y-6740000D01*
X11762000Y-6700000D02*
X11842000Y-6700000D01*
X11813000Y-7328500D02*
X11813000Y-7408500D01*
X11773000Y-7368500D02*
X11853000Y-7368500D01*
X11813000Y-7836500D02*
X11813000Y-7916500D01*
X11773000Y-7876500D02*
X11853000Y-7876500D01*
X12067000Y-7328500D02*
X12067000Y-7408500D01*
X12027000Y-7368500D02*
X12107000Y-7368500D01*
X12067000Y-7836500D02*
X12067000Y-7916500D01*
X12027000Y-7876500D02*
X12107000Y-7876500D01*
X12321000Y-7328500D02*
X12321000Y-7408500D01*
X12281000Y-7368500D02*
X12361000Y-7368500D01*
X12321000Y-7836500D02*
X12321000Y-7916500D01*
X12281000Y-7876500D02*
X12361000Y-7876500D01*
X12351000Y-8912500D02*
X12351000Y-8992500D01*
X12311000Y-8952500D02*
X12391000Y-8952500D01*
X12351000Y-9667500D02*
X12351000Y-9747500D01*
X12311000Y-9707500D02*
X12391000Y-9707500D01*
X12766000Y-5620000D02*
X12766000Y-5700000D01*
X12726000Y-5660000D02*
X12806000Y-5660000D01*
X12766000Y-6128000D02*
X12766000Y-6208000D01*
X12726000Y-6168000D02*
X12806000Y-6168000D01*
X13020000Y-5620000D02*
X13020000Y-5700000D01*
X12980000Y-5660000D02*
X13060000Y-5660000D01*
X13020000Y-6128000D02*
X13020000Y-6208000D01*
X12980000Y-6168000D02*
X13060000Y-6168000D01*
X13274000Y-5620000D02*
X13274000Y-5700000D01*
X13234000Y-5660000D02*
X13314000Y-5660000D01*
X13274000Y-6128000D02*
X13274000Y-6208000D01*
X13234000Y-6168000D02*
X13314000Y-6168000D01*
X13528000Y-5620000D02*
X13528000Y-5700000D01*
X13488000Y-5660000D02*
X13568000Y-5660000D01*
X13528000Y-6128000D02*
X13528000Y-6208000D01*
X13488000Y-6168000D02*
X13568000Y-6168000D01*
X13770000Y-7465000D02*
X13770000Y-7545000D01*
X13730000Y-7505000D02*
X13810000Y-7505000D01*
X13770000Y-8227000D02*
X13770000Y-8307000D01*
X13730000Y-8267000D02*
X13810000Y-8267000D01*
X14292500Y-7244000D02*
X14292500Y-7324000D01*
X14252500Y-7284000D02*
X14332500Y-7284000D01*
X14292500Y-8006000D02*
X14292500Y-8086000D01*
X14252500Y-8046000D02*
X14332500Y-8046000D01*
X14377500Y-8352500D02*
X14377500Y-8432500D01*
X14337500Y-8392500D02*
X14417500Y-8392500D01*
X14377500Y-9114500D02*
X14377500Y-9194500D01*
X14337500Y-9154500D02*
X14417500Y-9154500D01*
X14690500Y-9145000D02*
X14690500Y-9225000D01*
X14650500Y-9185000D02*
X14730500Y-9185000D01*
X14944500Y-9145000D02*
X14944500Y-9225000D01*
X14904500Y-9185000D02*
X14984500Y-9185000D01*
X16098000Y-9705000D02*
X16098000Y-9785000D01*
X16058000Y-9745000D02*
X16138000Y-9745000D01*
X16352000Y-9705000D02*
X16352000Y-9785000D01*
X16312000Y-9745000D02*
X16392000Y-9745000D01*
X13184320Y-7029320D02*
X13184320Y-6965680D01*
X13120680Y-6965680D01*
X13120680Y-7029320D01*
X13184320Y-7029320D01*
X13184320Y-7444320D02*
X13184320Y-7380680D01*
X13120680Y-7380680D01*
X13120680Y-7444320D01*
X13184320Y-7444320D01*
X11879600Y-4970000D02*
X11929600Y-4920000D01*
X11879600Y-4870000D01*
X11829600Y-4920000D01*
X11879600Y-4970000D01*
X12133600Y-4970000D02*
X12183600Y-4920000D01*
X12133600Y-4870000D01*
X12083600Y-4920000D01*
X12133600Y-4970000D01*
X12387600Y-4970000D02*
X12437600Y-4920000D01*
X12387600Y-4870000D01*
X12337600Y-4920000D01*
X12387600Y-4970000D01*
X12641600Y-4970000D02*
X12691600Y-4920000D01*
X12641600Y-4870000D01*
X12591600Y-4920000D01*
X12641600Y-4970000D01*
X12794000Y-9796000D02*
X12844000Y-9746000D01*
X12794000Y-9696000D01*
X12744000Y-9746000D01*
X12794000Y-9796000D01*
X12895600Y-4970000D02*
X12945600Y-4920000D01*
X12895600Y-4870000D01*
X12845600Y-4920000D01*
X12895600Y-4970000D01*
X12937500Y-8965000D02*
X12987500Y-8915000D01*
X12937500Y-8865000D01*
X12887500Y-8915000D01*
X12937500Y-8965000D01*
X13048000Y-9796000D02*
X13098000Y-9746000D01*
X13048000Y-9696000D01*
X12998000Y-9746000D01*
X13048000Y-9796000D01*
X13112500Y-7915000D02*
X13162500Y-7865000D01*
X13112500Y-7815000D01*
X13062500Y-7865000D01*
X13112500Y-7915000D01*
X13112500Y-8315000D02*
X13162500Y-8265000D01*
X13112500Y-8215000D01*
X13062500Y-8265000D01*
X13112500Y-8315000D01*
X13149600Y-4970000D02*
X13199600Y-4920000D01*
X13149600Y-4870000D01*
X13099600Y-4920000D01*
X13149600Y-4970000D01*
X13302000Y-9796000D02*
X13352000Y-9746000D01*
X13302000Y-9696000D01*
X13252000Y-9746000D01*
X13302000Y-9796000D01*
X13337500Y-8965000D02*
X13387500Y-8915000D01*
X13337500Y-8865000D01*
X13287500Y-8915000D01*
X13337500Y-8965000D01*
X13403600Y-4970000D02*
X13453600Y-4920000D01*
X13403600Y-4870000D01*
X13353600Y-4920000D01*
X13403600Y-4970000D01*
X13556000Y-9796000D02*
X13606000Y-9746000D01*
X13556000Y-9696000D01*
X13506000Y-9746000D01*
X13556000Y-9796000D01*
X13657600Y-4970000D02*
X13707600Y-4920000D01*
X13657600Y-4870000D01*
X13607600Y-4920000D01*
X13657600Y-4970000D01*
X13810000Y-9796000D02*
X13860000Y-9746000D01*
X13810000Y-9696000D01*
X13760000Y-9746000D01*
X13810000Y-9796000D01*
X13911600Y-4970000D02*
X13961600Y-4920000D01*
X13911600Y-4870000D01*
X13861600Y-4920000D01*
X13911600Y-4970000D01*
X14064000Y-9796000D02*
X14114000Y-9746000D01*
X14064000Y-9696000D01*
X14014000Y-9746000D01*
X14064000Y-9796000D01*
X14072500Y-5728500D02*
X14122500Y-5678500D01*
X14072500Y-5628500D01*
X14022500Y-5678500D01*
X14072500Y-5728500D01*
X14072500Y-5982500D02*
X14122500Y-5932500D01*
X14072500Y-5882500D01*
X14022500Y-5932500D01*
X14072500Y-5982500D01*
X14072500Y-6236500D02*
X14122500Y-6186500D01*
X14072500Y-6136500D01*
X14022500Y-6186500D01*
X14072500Y-6236500D01*
X14165600Y-4970000D02*
X14215600Y-4920000D01*
X14165600Y-4870000D01*
X14115600Y-4920000D01*
X14165600Y-4970000D01*
X14318000Y-9796000D02*
X14368000Y-9746000D01*
X14318000Y-9696000D01*
X14268000Y-9746000D01*
X14318000Y-9796000D01*
X14572000Y-4970000D02*
X14622000Y-4920000D01*
X14572000Y-4870000D01*
X14522000Y-4920000D01*
X14572000Y-4970000D01*
X14572000Y-9796000D02*
X14622000Y-9746000D01*
X14572000Y-9696000D01*
X14522000Y-9746000D01*
X14572000Y-9796000D01*
X14826000Y-4970000D02*
X14876000Y-4920000D01*
X14826000Y-4870000D01*
X14776000Y-4920000D01*
X14826000Y-4970000D01*
X15080000Y-4970000D02*
X15130000Y-4920000D01*
X15080000Y-4870000D01*
X15030000Y-4920000D01*
X15080000Y-4970000D01*
X15080000Y-9796000D02*
X15130000Y-9746000D01*
X15080000Y-9696000D01*
X15030000Y-9746000D01*
X15080000Y-9796000D01*
X15130000Y-5686500D02*
X15180000Y-5636500D01*
X15130000Y-5586500D01*
X15080000Y-5636500D01*
X15130000Y-5686500D01*
X15130000Y-5940500D02*
X15180000Y-5890500D01*
X15130000Y-5840500D01*
X15080000Y-5890500D01*
X15130000Y-5940500D01*
X15130000Y-6194500D02*
X15180000Y-6144500D01*
X15130000Y-6094500D01*
X15080000Y-6144500D01*
X15130000Y-6194500D01*
X15130000Y-6448500D02*
X15180000Y-6398500D01*
X15130000Y-6348500D01*
X15080000Y-6398500D01*
X15130000Y-6448500D01*
X15307000Y-9055000D02*
X15357000Y-9005000D01*
X15307000Y-8955000D01*
X15257000Y-9005000D01*
X15307000Y-9055000D01*
X15334000Y-4970000D02*
X15384000Y-4920000D01*
X15334000Y-4870000D01*
X15284000Y-4920000D01*
X15334000Y-4970000D01*
X15334000Y-9796000D02*
X15384000Y-9746000D01*
X15334000Y-9696000D01*
X15284000Y-9746000D01*
X15334000Y-9796000D01*
X15561000Y-9055000D02*
X15611000Y-9005000D01*
X15561000Y-8955000D01*
X15511000Y-9005000D01*
X15561000Y-9055000D01*
X15588000Y-4970000D02*
X15638000Y-4920000D01*
X15588000Y-4870000D01*
X15538000Y-4920000D01*
X15588000Y-4970000D01*
X15588000Y-9796000D02*
X15638000Y-9746000D01*
X15588000Y-9696000D01*
X15538000Y-9746000D01*
X15588000Y-9796000D01*
X15815000Y-9055000D02*
X15865000Y-9005000D01*
X15815000Y-8955000D01*
X15765000Y-9005000D01*
X15815000Y-9055000D01*
X15842000Y-4970000D02*
X15892000Y-4920000D01*
X15842000Y-4870000D01*
X15792000Y-4920000D01*
X15842000Y-4970000D01*
X15842000Y-9796000D02*
X15892000Y-9746000D01*
X15842000Y-9696000D01*
X15792000Y-9746000D01*
X15842000Y-9796000D01*
X16069000Y-9055000D02*
X16119000Y-9005000D01*
X16069000Y-8955000D01*
X16019000Y-9005000D01*
X16069000Y-9055000D01*
X16096000Y-4970000D02*
X16146000Y-4920000D01*
X16096000Y-4870000D01*
X16046000Y-4920000D01*
X16096000Y-4970000D01*
X16096000Y-9796000D02*
X16146000Y-9746000D01*
X16096000Y-9696000D01*
X16046000Y-9746000D01*
X16096000Y-9796000D01*
X16350000Y-4970000D02*
X16400000Y-4920000D01*
X16350000Y-4870000D01*
X16300000Y-4920000D01*
X16350000Y-4970000D01*
X16350000Y-9796000D02*
X16400000Y-9746000D01*
X16350000Y-9696000D01*
X16300000Y-9746000D01*
X16350000Y-9796000D01*
X16642500Y-7016000D02*
X16692500Y-6966000D01*
X16642500Y-6916000D01*
X16592500Y-6966000D01*
X16642500Y-7016000D01*
X16642500Y-7270000D02*
X16692500Y-7220000D01*
X16642500Y-7170000D01*
X16592500Y-7220000D01*
X16642500Y-7270000D01*
X16642500Y-7524000D02*
X16692500Y-7474000D01*
X16642500Y-7424000D01*
X16592500Y-7474000D01*
X16642500Y-7524000D01*
X16642500Y-7778000D02*
X16692500Y-7728000D01*
X16642500Y-7678000D01*
X16592500Y-7728000D01*
X16642500Y-7778000D01*
X16642500Y-8032000D02*
X16692500Y-7982000D01*
X16642500Y-7932000D01*
X16592500Y-7982000D01*
X16642500Y-8032000D01*
D11*
X10253277Y-10318984D02*
X10253277Y-10118984D01*
X10253277Y-10118984D02*
X10300896Y-10118984D01*
X10300896Y-10118984D02*
X10329467Y-10128508D01*
X10329467Y-10128508D02*
X10348515Y-10147555D01*
X10348515Y-10147555D02*
X10358039Y-10166603D01*
X10358039Y-10166603D02*
X10367563Y-10204698D01*
X10367563Y-10204698D02*
X10367563Y-10233270D01*
X10367563Y-10233270D02*
X10358039Y-10271365D01*
X10358039Y-10271365D02*
X10348515Y-10290412D01*
X10348515Y-10290412D02*
X10329467Y-10309460D01*
X10329467Y-10309460D02*
X10300896Y-10318984D01*
X10300896Y-10318984D02*
X10253277Y-10318984D01*
X10453277Y-10318984D02*
X10453277Y-10185650D01*
X10453277Y-10223746D02*
X10462801Y-10204698D01*
X10462801Y-10204698D02*
X10472324Y-10195174D01*
X10472324Y-10195174D02*
X10491372Y-10185650D01*
X10491372Y-10185650D02*
X10510420Y-10185650D01*
X10577086Y-10318984D02*
X10577086Y-10185650D01*
X10577086Y-10118984D02*
X10567563Y-10128508D01*
X10567563Y-10128508D02*
X10577086Y-10138031D01*
X10577086Y-10138031D02*
X10586610Y-10128508D01*
X10586610Y-10128508D02*
X10577086Y-10118984D01*
X10577086Y-10118984D02*
X10577086Y-10138031D01*
X10700896Y-10318984D02*
X10681848Y-10309460D01*
X10681848Y-10309460D02*
X10672324Y-10290412D01*
X10672324Y-10290412D02*
X10672324Y-10118984D01*
X10805658Y-10318984D02*
X10786610Y-10309460D01*
X10786610Y-10309460D02*
X10777086Y-10290412D01*
X10777086Y-10290412D02*
X10777086Y-10118984D01*
X11034229Y-10318984D02*
X11034229Y-10118984D01*
X11034229Y-10118984D02*
X11100896Y-10261841D01*
X11100896Y-10261841D02*
X11167563Y-10118984D01*
X11167563Y-10118984D02*
X11167563Y-10318984D01*
X11348515Y-10318984D02*
X11348515Y-10214222D01*
X11348515Y-10214222D02*
X11338991Y-10195174D01*
X11338991Y-10195174D02*
X11319943Y-10185650D01*
X11319943Y-10185650D02*
X11281848Y-10185650D01*
X11281848Y-10185650D02*
X11262801Y-10195174D01*
X11348515Y-10309460D02*
X11329467Y-10318984D01*
X11329467Y-10318984D02*
X11281848Y-10318984D01*
X11281848Y-10318984D02*
X11262801Y-10309460D01*
X11262801Y-10309460D02*
X11253277Y-10290412D01*
X11253277Y-10290412D02*
X11253277Y-10271365D01*
X11253277Y-10271365D02*
X11262801Y-10252317D01*
X11262801Y-10252317D02*
X11281848Y-10242793D01*
X11281848Y-10242793D02*
X11329467Y-10242793D01*
X11329467Y-10242793D02*
X11348515Y-10233270D01*
X11443753Y-10185650D02*
X11443753Y-10385650D01*
X11443753Y-10195174D02*
X11462801Y-10185650D01*
X11462801Y-10185650D02*
X11500896Y-10185650D01*
X11500896Y-10185650D02*
X11519943Y-10195174D01*
X11519943Y-10195174D02*
X11529467Y-10204698D01*
X11529467Y-10204698D02*
X11538991Y-10223746D01*
X11538991Y-10223746D02*
X11538991Y-10280889D01*
X11538991Y-10280889D02*
X11529467Y-10299936D01*
X11529467Y-10299936D02*
X11519943Y-10309460D01*
X11519943Y-10309460D02*
X11500896Y-10318984D01*
X11500896Y-10318984D02*
X11462801Y-10318984D01*
X11462801Y-10318984D02*
X11443753Y-10309460D01*
X11624705Y-10299936D02*
X11634229Y-10309460D01*
X11634229Y-10309460D02*
X11624705Y-10318984D01*
X11624705Y-10318984D02*
X11615182Y-10309460D01*
X11615182Y-10309460D02*
X11624705Y-10299936D01*
X11624705Y-10299936D02*
X11624705Y-10318984D01*
X11624705Y-10195174D02*
X11634229Y-10204698D01*
X11634229Y-10204698D02*
X11624705Y-10214222D01*
X11624705Y-10214222D02*
X11615182Y-10204698D01*
X11615182Y-10204698D02*
X11624705Y-10195174D01*
X11624705Y-10195174D02*
X11624705Y-10214222D01*
D12*
X9952500Y-10627500D02*
X9992500Y-10667500D01*
X9992500Y-10627500D02*
X9952500Y-10667500D01*
D11*
X10291372Y-10538984D02*
X10310420Y-10538984D01*
X10310420Y-10538984D02*
X10329467Y-10548508D01*
X10329467Y-10548508D02*
X10338991Y-10558031D01*
X10338991Y-10558031D02*
X10348515Y-10577079D01*
X10348515Y-10577079D02*
X10358039Y-10615174D01*
X10358039Y-10615174D02*
X10358039Y-10662793D01*
X10358039Y-10662793D02*
X10348515Y-10700889D01*
X10348515Y-10700889D02*
X10338991Y-10719936D01*
X10338991Y-10719936D02*
X10329467Y-10729460D01*
X10329467Y-10729460D02*
X10310420Y-10738984D01*
X10310420Y-10738984D02*
X10291372Y-10738984D01*
X10291372Y-10738984D02*
X10272324Y-10729460D01*
X10272324Y-10729460D02*
X10262801Y-10719936D01*
X10262801Y-10719936D02*
X10253277Y-10700889D01*
X10253277Y-10700889D02*
X10243753Y-10662793D01*
X10243753Y-10662793D02*
X10243753Y-10615174D01*
X10243753Y-10615174D02*
X10253277Y-10577079D01*
X10253277Y-10577079D02*
X10262801Y-10558031D01*
X10262801Y-10558031D02*
X10272324Y-10548508D01*
X10272324Y-10548508D02*
X10291372Y-10538984D01*
X10443753Y-10719936D02*
X10453277Y-10729460D01*
X10453277Y-10729460D02*
X10443753Y-10738984D01*
X10443753Y-10738984D02*
X10434229Y-10729460D01*
X10434229Y-10729460D02*
X10443753Y-10719936D01*
X10443753Y-10719936D02*
X10443753Y-10738984D01*
X10624705Y-10605650D02*
X10624705Y-10738984D01*
X10577086Y-10529460D02*
X10529467Y-10672317D01*
X10529467Y-10672317D02*
X10653277Y-10672317D01*
X10767563Y-10538984D02*
X10786610Y-10538984D01*
X10786610Y-10538984D02*
X10805658Y-10548508D01*
X10805658Y-10548508D02*
X10815182Y-10558031D01*
X10815182Y-10558031D02*
X10824705Y-10577079D01*
X10824705Y-10577079D02*
X10834229Y-10615174D01*
X10834229Y-10615174D02*
X10834229Y-10662793D01*
X10834229Y-10662793D02*
X10824705Y-10700889D01*
X10824705Y-10700889D02*
X10815182Y-10719936D01*
X10815182Y-10719936D02*
X10805658Y-10729460D01*
X10805658Y-10729460D02*
X10786610Y-10738984D01*
X10786610Y-10738984D02*
X10767563Y-10738984D01*
X10767563Y-10738984D02*
X10748515Y-10729460D01*
X10748515Y-10729460D02*
X10738991Y-10719936D01*
X10738991Y-10719936D02*
X10729467Y-10700889D01*
X10729467Y-10700889D02*
X10719944Y-10662793D01*
X10719944Y-10662793D02*
X10719944Y-10615174D01*
X10719944Y-10615174D02*
X10729467Y-10577079D01*
X10729467Y-10577079D02*
X10738991Y-10558031D01*
X10738991Y-10558031D02*
X10748515Y-10548508D01*
X10748515Y-10548508D02*
X10767563Y-10538984D01*
X10958039Y-10538984D02*
X10977086Y-10538984D01*
X10977086Y-10538984D02*
X10996134Y-10548508D01*
X10996134Y-10548508D02*
X11005658Y-10558031D01*
X11005658Y-10558031D02*
X11015182Y-10577079D01*
X11015182Y-10577079D02*
X11024705Y-10615174D01*
X11024705Y-10615174D02*
X11024705Y-10662793D01*
X11024705Y-10662793D02*
X11015182Y-10700889D01*
X11015182Y-10700889D02*
X11005658Y-10719936D01*
X11005658Y-10719936D02*
X10996134Y-10729460D01*
X10996134Y-10729460D02*
X10977086Y-10738984D01*
X10977086Y-10738984D02*
X10958039Y-10738984D01*
X10958039Y-10738984D02*
X10938991Y-10729460D01*
X10938991Y-10729460D02*
X10929467Y-10719936D01*
X10929467Y-10719936D02*
X10919944Y-10700889D01*
X10919944Y-10700889D02*
X10910420Y-10662793D01*
X10910420Y-10662793D02*
X10910420Y-10615174D01*
X10910420Y-10615174D02*
X10919944Y-10577079D01*
X10919944Y-10577079D02*
X10929467Y-10558031D01*
X10929467Y-10558031D02*
X10938991Y-10548508D01*
X10938991Y-10548508D02*
X10958039Y-10538984D01*
X11110420Y-10738984D02*
X11110420Y-10605650D01*
X11110420Y-10624698D02*
X11119944Y-10615174D01*
X11119944Y-10615174D02*
X11138991Y-10605650D01*
X11138991Y-10605650D02*
X11167563Y-10605650D01*
X11167563Y-10605650D02*
X11186610Y-10615174D01*
X11186610Y-10615174D02*
X11196134Y-10634222D01*
X11196134Y-10634222D02*
X11196134Y-10738984D01*
X11196134Y-10634222D02*
X11205658Y-10615174D01*
X11205658Y-10615174D02*
X11224705Y-10605650D01*
X11224705Y-10605650D02*
X11253277Y-10605650D01*
X11253277Y-10605650D02*
X11272324Y-10615174D01*
X11272324Y-10615174D02*
X11281848Y-10634222D01*
X11281848Y-10634222D02*
X11281848Y-10738984D01*
X11377086Y-10738984D02*
X11377086Y-10605650D01*
X11377086Y-10624698D02*
X11386610Y-10615174D01*
X11386610Y-10615174D02*
X11405658Y-10605650D01*
X11405658Y-10605650D02*
X11434229Y-10605650D01*
X11434229Y-10605650D02*
X11453277Y-10615174D01*
X11453277Y-10615174D02*
X11462801Y-10634222D01*
X11462801Y-10634222D02*
X11462801Y-10738984D01*
X11462801Y-10634222D02*
X11472324Y-10615174D01*
X11472324Y-10615174D02*
X11491372Y-10605650D01*
X11491372Y-10605650D02*
X11519943Y-10605650D01*
X11519943Y-10605650D02*
X11538991Y-10615174D01*
X11538991Y-10615174D02*
X11548515Y-10634222D01*
X11548515Y-10634222D02*
X11548515Y-10738984D01*
X11938991Y-10529460D02*
X11767563Y-10786603D01*
X12196134Y-10538984D02*
X12215182Y-10538984D01*
X12215182Y-10538984D02*
X12234229Y-10548508D01*
X12234229Y-10548508D02*
X12243753Y-10558031D01*
X12243753Y-10558031D02*
X12253277Y-10577079D01*
X12253277Y-10577079D02*
X12262801Y-10615174D01*
X12262801Y-10615174D02*
X12262801Y-10662793D01*
X12262801Y-10662793D02*
X12253277Y-10700889D01*
X12253277Y-10700889D02*
X12243753Y-10719936D01*
X12243753Y-10719936D02*
X12234229Y-10729460D01*
X12234229Y-10729460D02*
X12215182Y-10738984D01*
X12215182Y-10738984D02*
X12196134Y-10738984D01*
X12196134Y-10738984D02*
X12177086Y-10729460D01*
X12177086Y-10729460D02*
X12167563Y-10719936D01*
X12167563Y-10719936D02*
X12158039Y-10700889D01*
X12158039Y-10700889D02*
X12148515Y-10662793D01*
X12148515Y-10662793D02*
X12148515Y-10615174D01*
X12148515Y-10615174D02*
X12158039Y-10577079D01*
X12158039Y-10577079D02*
X12167563Y-10558031D01*
X12167563Y-10558031D02*
X12177086Y-10548508D01*
X12177086Y-10548508D02*
X12196134Y-10538984D01*
X12348515Y-10719936D02*
X12358039Y-10729460D01*
X12358039Y-10729460D02*
X12348515Y-10738984D01*
X12348515Y-10738984D02*
X12338991Y-10729460D01*
X12338991Y-10729460D02*
X12348515Y-10719936D01*
X12348515Y-10719936D02*
X12348515Y-10738984D01*
X12481848Y-10538984D02*
X12500896Y-10538984D01*
X12500896Y-10538984D02*
X12519944Y-10548508D01*
X12519944Y-10548508D02*
X12529467Y-10558031D01*
X12529467Y-10558031D02*
X12538991Y-10577079D01*
X12538991Y-10577079D02*
X12548515Y-10615174D01*
X12548515Y-10615174D02*
X12548515Y-10662793D01*
X12548515Y-10662793D02*
X12538991Y-10700889D01*
X12538991Y-10700889D02*
X12529467Y-10719936D01*
X12529467Y-10719936D02*
X12519944Y-10729460D01*
X12519944Y-10729460D02*
X12500896Y-10738984D01*
X12500896Y-10738984D02*
X12481848Y-10738984D01*
X12481848Y-10738984D02*
X12462801Y-10729460D01*
X12462801Y-10729460D02*
X12453277Y-10719936D01*
X12453277Y-10719936D02*
X12443753Y-10700889D01*
X12443753Y-10700889D02*
X12434229Y-10662793D01*
X12434229Y-10662793D02*
X12434229Y-10615174D01*
X12434229Y-10615174D02*
X12443753Y-10577079D01*
X12443753Y-10577079D02*
X12453277Y-10558031D01*
X12453277Y-10558031D02*
X12462801Y-10548508D01*
X12462801Y-10548508D02*
X12481848Y-10538984D01*
X12738991Y-10738984D02*
X12624706Y-10738984D01*
X12681848Y-10738984D02*
X12681848Y-10538984D01*
X12681848Y-10538984D02*
X12662801Y-10567555D01*
X12662801Y-10567555D02*
X12643753Y-10586603D01*
X12643753Y-10586603D02*
X12624706Y-10596127D01*
X12919944Y-10538984D02*
X12824706Y-10538984D01*
X12824706Y-10538984D02*
X12815182Y-10634222D01*
X12815182Y-10634222D02*
X12824706Y-10624698D01*
X12824706Y-10624698D02*
X12843753Y-10615174D01*
X12843753Y-10615174D02*
X12891372Y-10615174D01*
X12891372Y-10615174D02*
X12910420Y-10624698D01*
X12910420Y-10624698D02*
X12919944Y-10634222D01*
X12919944Y-10634222D02*
X12929467Y-10653270D01*
X12929467Y-10653270D02*
X12929467Y-10700889D01*
X12929467Y-10700889D02*
X12919944Y-10719936D01*
X12919944Y-10719936D02*
X12910420Y-10729460D01*
X12910420Y-10729460D02*
X12891372Y-10738984D01*
X12891372Y-10738984D02*
X12843753Y-10738984D01*
X12843753Y-10738984D02*
X12824706Y-10729460D01*
X12824706Y-10729460D02*
X12815182Y-10719936D01*
X12996134Y-10538984D02*
X13129467Y-10538984D01*
X13129467Y-10538984D02*
X13043753Y-10738984D01*
X13196134Y-10538984D02*
X13196134Y-10577079D01*
X13272325Y-10538984D02*
X13272325Y-10577079D01*
X13567563Y-10815174D02*
X13558039Y-10805650D01*
X13558039Y-10805650D02*
X13538991Y-10777079D01*
X13538991Y-10777079D02*
X13529468Y-10758031D01*
X13529468Y-10758031D02*
X13519944Y-10729460D01*
X13519944Y-10729460D02*
X13510420Y-10681841D01*
X13510420Y-10681841D02*
X13510420Y-10643746D01*
X13510420Y-10643746D02*
X13519944Y-10596127D01*
X13519944Y-10596127D02*
X13529468Y-10567555D01*
X13529468Y-10567555D02*
X13538991Y-10548508D01*
X13538991Y-10548508D02*
X13558039Y-10519936D01*
X13558039Y-10519936D02*
X13567563Y-10510412D01*
X13748515Y-10738984D02*
X13634229Y-10738984D01*
X13691372Y-10738984D02*
X13691372Y-10538984D01*
X13691372Y-10538984D02*
X13672325Y-10567555D01*
X13672325Y-10567555D02*
X13653277Y-10586603D01*
X13653277Y-10586603D02*
X13634229Y-10596127D01*
X13824706Y-10558031D02*
X13834229Y-10548508D01*
X13834229Y-10548508D02*
X13853277Y-10538984D01*
X13853277Y-10538984D02*
X13900896Y-10538984D01*
X13900896Y-10538984D02*
X13919944Y-10548508D01*
X13919944Y-10548508D02*
X13929468Y-10558031D01*
X13929468Y-10558031D02*
X13938991Y-10577079D01*
X13938991Y-10577079D02*
X13938991Y-10596127D01*
X13938991Y-10596127D02*
X13929468Y-10624698D01*
X13929468Y-10624698D02*
X13815182Y-10738984D01*
X13815182Y-10738984D02*
X13938991Y-10738984D01*
X14177087Y-10738984D02*
X14177087Y-10538984D01*
X14262801Y-10738984D02*
X14262801Y-10634222D01*
X14262801Y-10634222D02*
X14253277Y-10615174D01*
X14253277Y-10615174D02*
X14234230Y-10605650D01*
X14234230Y-10605650D02*
X14205658Y-10605650D01*
X14205658Y-10605650D02*
X14186610Y-10615174D01*
X14186610Y-10615174D02*
X14177087Y-10624698D01*
X14386610Y-10738984D02*
X14367563Y-10729460D01*
X14367563Y-10729460D02*
X14358039Y-10719936D01*
X14358039Y-10719936D02*
X14348515Y-10700889D01*
X14348515Y-10700889D02*
X14348515Y-10643746D01*
X14348515Y-10643746D02*
X14358039Y-10624698D01*
X14358039Y-10624698D02*
X14367563Y-10615174D01*
X14367563Y-10615174D02*
X14386610Y-10605650D01*
X14386610Y-10605650D02*
X14415182Y-10605650D01*
X14415182Y-10605650D02*
X14434230Y-10615174D01*
X14434230Y-10615174D02*
X14443753Y-10624698D01*
X14443753Y-10624698D02*
X14453277Y-10643746D01*
X14453277Y-10643746D02*
X14453277Y-10700889D01*
X14453277Y-10700889D02*
X14443753Y-10719936D01*
X14443753Y-10719936D02*
X14434230Y-10729460D01*
X14434230Y-10729460D02*
X14415182Y-10738984D01*
X14415182Y-10738984D02*
X14386610Y-10738984D01*
X14567563Y-10738984D02*
X14548515Y-10729460D01*
X14548515Y-10729460D02*
X14538991Y-10710412D01*
X14538991Y-10710412D02*
X14538991Y-10538984D01*
X14719944Y-10729460D02*
X14700896Y-10738984D01*
X14700896Y-10738984D02*
X14662801Y-10738984D01*
X14662801Y-10738984D02*
X14643753Y-10729460D01*
X14643753Y-10729460D02*
X14634230Y-10710412D01*
X14634230Y-10710412D02*
X14634230Y-10634222D01*
X14634230Y-10634222D02*
X14643753Y-10615174D01*
X14643753Y-10615174D02*
X14662801Y-10605650D01*
X14662801Y-10605650D02*
X14700896Y-10605650D01*
X14700896Y-10605650D02*
X14719944Y-10615174D01*
X14719944Y-10615174D02*
X14729468Y-10634222D01*
X14729468Y-10634222D02*
X14729468Y-10653270D01*
X14729468Y-10653270D02*
X14634230Y-10672317D01*
X14805658Y-10729460D02*
X14824706Y-10738984D01*
X14824706Y-10738984D02*
X14862801Y-10738984D01*
X14862801Y-10738984D02*
X14881849Y-10729460D01*
X14881849Y-10729460D02*
X14891372Y-10710412D01*
X14891372Y-10710412D02*
X14891372Y-10700889D01*
X14891372Y-10700889D02*
X14881849Y-10681841D01*
X14881849Y-10681841D02*
X14862801Y-10672317D01*
X14862801Y-10672317D02*
X14834230Y-10672317D01*
X14834230Y-10672317D02*
X14815182Y-10662793D01*
X14815182Y-10662793D02*
X14805658Y-10643746D01*
X14805658Y-10643746D02*
X14805658Y-10634222D01*
X14805658Y-10634222D02*
X14815182Y-10615174D01*
X14815182Y-10615174D02*
X14834230Y-10605650D01*
X14834230Y-10605650D02*
X14862801Y-10605650D01*
X14862801Y-10605650D02*
X14881849Y-10615174D01*
X14958039Y-10815174D02*
X14967563Y-10805650D01*
X14967563Y-10805650D02*
X14986611Y-10777079D01*
X14986611Y-10777079D02*
X14996134Y-10758031D01*
X14996134Y-10758031D02*
X15005658Y-10729460D01*
X15005658Y-10729460D02*
X15015182Y-10681841D01*
X15015182Y-10681841D02*
X15015182Y-10643746D01*
X15015182Y-10643746D02*
X15005658Y-10596127D01*
X15005658Y-10596127D02*
X14996134Y-10567555D01*
X14996134Y-10567555D02*
X14986611Y-10548508D01*
X14986611Y-10548508D02*
X14967563Y-10519936D01*
X14967563Y-10519936D02*
X14958039Y-10510412D01*
D12*
X9992500Y-10911500D02*
G75*
G02*
X9912500Y-10911500I-40000J0D01*
G01*
X9912500Y-10911500D02*
G75*
G02*
X9992500Y-10911500I40000J0D01*
G01*
D11*
X10291372Y-10802984D02*
X10310420Y-10802984D01*
X10310420Y-10802984D02*
X10329467Y-10812508D01*
X10329467Y-10812508D02*
X10338991Y-10822031D01*
X10338991Y-10822031D02*
X10348515Y-10841079D01*
X10348515Y-10841079D02*
X10358039Y-10879174D01*
X10358039Y-10879174D02*
X10358039Y-10926793D01*
X10358039Y-10926793D02*
X10348515Y-10964889D01*
X10348515Y-10964889D02*
X10338991Y-10983936D01*
X10338991Y-10983936D02*
X10329467Y-10993460D01*
X10329467Y-10993460D02*
X10310420Y-11002984D01*
X10310420Y-11002984D02*
X10291372Y-11002984D01*
X10291372Y-11002984D02*
X10272324Y-10993460D01*
X10272324Y-10993460D02*
X10262801Y-10983936D01*
X10262801Y-10983936D02*
X10253277Y-10964889D01*
X10253277Y-10964889D02*
X10243753Y-10926793D01*
X10243753Y-10926793D02*
X10243753Y-10879174D01*
X10243753Y-10879174D02*
X10253277Y-10841079D01*
X10253277Y-10841079D02*
X10262801Y-10822031D01*
X10262801Y-10822031D02*
X10272324Y-10812508D01*
X10272324Y-10812508D02*
X10291372Y-10802984D01*
X10443753Y-10983936D02*
X10453277Y-10993460D01*
X10453277Y-10993460D02*
X10443753Y-11002984D01*
X10443753Y-11002984D02*
X10434229Y-10993460D01*
X10434229Y-10993460D02*
X10443753Y-10983936D01*
X10443753Y-10983936D02*
X10443753Y-11002984D01*
X10567563Y-10888698D02*
X10548515Y-10879174D01*
X10548515Y-10879174D02*
X10538991Y-10869650D01*
X10538991Y-10869650D02*
X10529467Y-10850603D01*
X10529467Y-10850603D02*
X10529467Y-10841079D01*
X10529467Y-10841079D02*
X10538991Y-10822031D01*
X10538991Y-10822031D02*
X10548515Y-10812508D01*
X10548515Y-10812508D02*
X10567563Y-10802984D01*
X10567563Y-10802984D02*
X10605658Y-10802984D01*
X10605658Y-10802984D02*
X10624705Y-10812508D01*
X10624705Y-10812508D02*
X10634229Y-10822031D01*
X10634229Y-10822031D02*
X10643753Y-10841079D01*
X10643753Y-10841079D02*
X10643753Y-10850603D01*
X10643753Y-10850603D02*
X10634229Y-10869650D01*
X10634229Y-10869650D02*
X10624705Y-10879174D01*
X10624705Y-10879174D02*
X10605658Y-10888698D01*
X10605658Y-10888698D02*
X10567563Y-10888698D01*
X10567563Y-10888698D02*
X10548515Y-10898222D01*
X10548515Y-10898222D02*
X10538991Y-10907746D01*
X10538991Y-10907746D02*
X10529467Y-10926793D01*
X10529467Y-10926793D02*
X10529467Y-10964889D01*
X10529467Y-10964889D02*
X10538991Y-10983936D01*
X10538991Y-10983936D02*
X10548515Y-10993460D01*
X10548515Y-10993460D02*
X10567563Y-11002984D01*
X10567563Y-11002984D02*
X10605658Y-11002984D01*
X10605658Y-11002984D02*
X10624705Y-10993460D01*
X10624705Y-10993460D02*
X10634229Y-10983936D01*
X10634229Y-10983936D02*
X10643753Y-10964889D01*
X10643753Y-10964889D02*
X10643753Y-10926793D01*
X10643753Y-10926793D02*
X10634229Y-10907746D01*
X10634229Y-10907746D02*
X10624705Y-10898222D01*
X10624705Y-10898222D02*
X10605658Y-10888698D01*
X10767563Y-10802984D02*
X10786610Y-10802984D01*
X10786610Y-10802984D02*
X10805658Y-10812508D01*
X10805658Y-10812508D02*
X10815182Y-10822031D01*
X10815182Y-10822031D02*
X10824705Y-10841079D01*
X10824705Y-10841079D02*
X10834229Y-10879174D01*
X10834229Y-10879174D02*
X10834229Y-10926793D01*
X10834229Y-10926793D02*
X10824705Y-10964889D01*
X10824705Y-10964889D02*
X10815182Y-10983936D01*
X10815182Y-10983936D02*
X10805658Y-10993460D01*
X10805658Y-10993460D02*
X10786610Y-11002984D01*
X10786610Y-11002984D02*
X10767563Y-11002984D01*
X10767563Y-11002984D02*
X10748515Y-10993460D01*
X10748515Y-10993460D02*
X10738991Y-10983936D01*
X10738991Y-10983936D02*
X10729467Y-10964889D01*
X10729467Y-10964889D02*
X10719944Y-10926793D01*
X10719944Y-10926793D02*
X10719944Y-10879174D01*
X10719944Y-10879174D02*
X10729467Y-10841079D01*
X10729467Y-10841079D02*
X10738991Y-10822031D01*
X10738991Y-10822031D02*
X10748515Y-10812508D01*
X10748515Y-10812508D02*
X10767563Y-10802984D01*
X10958039Y-10802984D02*
X10977086Y-10802984D01*
X10977086Y-10802984D02*
X10996134Y-10812508D01*
X10996134Y-10812508D02*
X11005658Y-10822031D01*
X11005658Y-10822031D02*
X11015182Y-10841079D01*
X11015182Y-10841079D02*
X11024705Y-10879174D01*
X11024705Y-10879174D02*
X11024705Y-10926793D01*
X11024705Y-10926793D02*
X11015182Y-10964889D01*
X11015182Y-10964889D02*
X11005658Y-10983936D01*
X11005658Y-10983936D02*
X10996134Y-10993460D01*
X10996134Y-10993460D02*
X10977086Y-11002984D01*
X10977086Y-11002984D02*
X10958039Y-11002984D01*
X10958039Y-11002984D02*
X10938991Y-10993460D01*
X10938991Y-10993460D02*
X10929467Y-10983936D01*
X10929467Y-10983936D02*
X10919944Y-10964889D01*
X10919944Y-10964889D02*
X10910420Y-10926793D01*
X10910420Y-10926793D02*
X10910420Y-10879174D01*
X10910420Y-10879174D02*
X10919944Y-10841079D01*
X10919944Y-10841079D02*
X10929467Y-10822031D01*
X10929467Y-10822031D02*
X10938991Y-10812508D01*
X10938991Y-10812508D02*
X10958039Y-10802984D01*
X11110420Y-11002984D02*
X11110420Y-10869650D01*
X11110420Y-10888698D02*
X11119944Y-10879174D01*
X11119944Y-10879174D02*
X11138991Y-10869650D01*
X11138991Y-10869650D02*
X11167563Y-10869650D01*
X11167563Y-10869650D02*
X11186610Y-10879174D01*
X11186610Y-10879174D02*
X11196134Y-10898222D01*
X11196134Y-10898222D02*
X11196134Y-11002984D01*
X11196134Y-10898222D02*
X11205658Y-10879174D01*
X11205658Y-10879174D02*
X11224705Y-10869650D01*
X11224705Y-10869650D02*
X11253277Y-10869650D01*
X11253277Y-10869650D02*
X11272324Y-10879174D01*
X11272324Y-10879174D02*
X11281848Y-10898222D01*
X11281848Y-10898222D02*
X11281848Y-11002984D01*
X11377086Y-11002984D02*
X11377086Y-10869650D01*
X11377086Y-10888698D02*
X11386610Y-10879174D01*
X11386610Y-10879174D02*
X11405658Y-10869650D01*
X11405658Y-10869650D02*
X11434229Y-10869650D01*
X11434229Y-10869650D02*
X11453277Y-10879174D01*
X11453277Y-10879174D02*
X11462801Y-10898222D01*
X11462801Y-10898222D02*
X11462801Y-11002984D01*
X11462801Y-10898222D02*
X11472324Y-10879174D01*
X11472324Y-10879174D02*
X11491372Y-10869650D01*
X11491372Y-10869650D02*
X11519943Y-10869650D01*
X11519943Y-10869650D02*
X11538991Y-10879174D01*
X11538991Y-10879174D02*
X11548515Y-10898222D01*
X11548515Y-10898222D02*
X11548515Y-11002984D01*
X11938991Y-10793460D02*
X11767563Y-11050603D01*
X12196134Y-10802984D02*
X12215182Y-10802984D01*
X12215182Y-10802984D02*
X12234229Y-10812508D01*
X12234229Y-10812508D02*
X12243753Y-10822031D01*
X12243753Y-10822031D02*
X12253277Y-10841079D01*
X12253277Y-10841079D02*
X12262801Y-10879174D01*
X12262801Y-10879174D02*
X12262801Y-10926793D01*
X12262801Y-10926793D02*
X12253277Y-10964889D01*
X12253277Y-10964889D02*
X12243753Y-10983936D01*
X12243753Y-10983936D02*
X12234229Y-10993460D01*
X12234229Y-10993460D02*
X12215182Y-11002984D01*
X12215182Y-11002984D02*
X12196134Y-11002984D01*
X12196134Y-11002984D02*
X12177086Y-10993460D01*
X12177086Y-10993460D02*
X12167563Y-10983936D01*
X12167563Y-10983936D02*
X12158039Y-10964889D01*
X12158039Y-10964889D02*
X12148515Y-10926793D01*
X12148515Y-10926793D02*
X12148515Y-10879174D01*
X12148515Y-10879174D02*
X12158039Y-10841079D01*
X12158039Y-10841079D02*
X12167563Y-10822031D01*
X12167563Y-10822031D02*
X12177086Y-10812508D01*
X12177086Y-10812508D02*
X12196134Y-10802984D01*
X12348515Y-10983936D02*
X12358039Y-10993460D01*
X12358039Y-10993460D02*
X12348515Y-11002984D01*
X12348515Y-11002984D02*
X12338991Y-10993460D01*
X12338991Y-10993460D02*
X12348515Y-10983936D01*
X12348515Y-10983936D02*
X12348515Y-11002984D01*
X12481848Y-10802984D02*
X12500896Y-10802984D01*
X12500896Y-10802984D02*
X12519944Y-10812508D01*
X12519944Y-10812508D02*
X12529467Y-10822031D01*
X12529467Y-10822031D02*
X12538991Y-10841079D01*
X12538991Y-10841079D02*
X12548515Y-10879174D01*
X12548515Y-10879174D02*
X12548515Y-10926793D01*
X12548515Y-10926793D02*
X12538991Y-10964889D01*
X12538991Y-10964889D02*
X12529467Y-10983936D01*
X12529467Y-10983936D02*
X12519944Y-10993460D01*
X12519944Y-10993460D02*
X12500896Y-11002984D01*
X12500896Y-11002984D02*
X12481848Y-11002984D01*
X12481848Y-11002984D02*
X12462801Y-10993460D01*
X12462801Y-10993460D02*
X12453277Y-10983936D01*
X12453277Y-10983936D02*
X12443753Y-10964889D01*
X12443753Y-10964889D02*
X12434229Y-10926793D01*
X12434229Y-10926793D02*
X12434229Y-10879174D01*
X12434229Y-10879174D02*
X12443753Y-10841079D01*
X12443753Y-10841079D02*
X12453277Y-10822031D01*
X12453277Y-10822031D02*
X12462801Y-10812508D01*
X12462801Y-10812508D02*
X12481848Y-10802984D01*
X12615182Y-10802984D02*
X12738991Y-10802984D01*
X12738991Y-10802984D02*
X12672325Y-10879174D01*
X12672325Y-10879174D02*
X12700896Y-10879174D01*
X12700896Y-10879174D02*
X12719944Y-10888698D01*
X12719944Y-10888698D02*
X12729467Y-10898222D01*
X12729467Y-10898222D02*
X12738991Y-10917270D01*
X12738991Y-10917270D02*
X12738991Y-10964889D01*
X12738991Y-10964889D02*
X12729467Y-10983936D01*
X12729467Y-10983936D02*
X12719944Y-10993460D01*
X12719944Y-10993460D02*
X12700896Y-11002984D01*
X12700896Y-11002984D02*
X12643753Y-11002984D01*
X12643753Y-11002984D02*
X12624706Y-10993460D01*
X12624706Y-10993460D02*
X12615182Y-10983936D01*
X12929467Y-11002984D02*
X12815182Y-11002984D01*
X12872325Y-11002984D02*
X12872325Y-10802984D01*
X12872325Y-10802984D02*
X12853277Y-10831555D01*
X12853277Y-10831555D02*
X12834229Y-10850603D01*
X12834229Y-10850603D02*
X12815182Y-10860127D01*
X13110420Y-10802984D02*
X13015182Y-10802984D01*
X13015182Y-10802984D02*
X13005658Y-10898222D01*
X13005658Y-10898222D02*
X13015182Y-10888698D01*
X13015182Y-10888698D02*
X13034229Y-10879174D01*
X13034229Y-10879174D02*
X13081848Y-10879174D01*
X13081848Y-10879174D02*
X13100896Y-10888698D01*
X13100896Y-10888698D02*
X13110420Y-10898222D01*
X13110420Y-10898222D02*
X13119944Y-10917270D01*
X13119944Y-10917270D02*
X13119944Y-10964889D01*
X13119944Y-10964889D02*
X13110420Y-10983936D01*
X13110420Y-10983936D02*
X13100896Y-10993460D01*
X13100896Y-10993460D02*
X13081848Y-11002984D01*
X13081848Y-11002984D02*
X13034229Y-11002984D01*
X13034229Y-11002984D02*
X13015182Y-10993460D01*
X13015182Y-10993460D02*
X13005658Y-10983936D01*
X13196134Y-10802984D02*
X13196134Y-10841079D01*
X13272325Y-10802984D02*
X13272325Y-10841079D01*
X13567563Y-11079174D02*
X13558039Y-11069650D01*
X13558039Y-11069650D02*
X13538991Y-11041079D01*
X13538991Y-11041079D02*
X13529468Y-11022031D01*
X13529468Y-11022031D02*
X13519944Y-10993460D01*
X13519944Y-10993460D02*
X13510420Y-10945841D01*
X13510420Y-10945841D02*
X13510420Y-10907746D01*
X13510420Y-10907746D02*
X13519944Y-10860127D01*
X13519944Y-10860127D02*
X13529468Y-10831555D01*
X13529468Y-10831555D02*
X13538991Y-10812508D01*
X13538991Y-10812508D02*
X13558039Y-10783936D01*
X13558039Y-10783936D02*
X13567563Y-10774412D01*
X13729468Y-10802984D02*
X13691372Y-10802984D01*
X13691372Y-10802984D02*
X13672325Y-10812508D01*
X13672325Y-10812508D02*
X13662801Y-10822031D01*
X13662801Y-10822031D02*
X13643753Y-10850603D01*
X13643753Y-10850603D02*
X13634229Y-10888698D01*
X13634229Y-10888698D02*
X13634229Y-10964889D01*
X13634229Y-10964889D02*
X13643753Y-10983936D01*
X13643753Y-10983936D02*
X13653277Y-10993460D01*
X13653277Y-10993460D02*
X13672325Y-11002984D01*
X13672325Y-11002984D02*
X13710420Y-11002984D01*
X13710420Y-11002984D02*
X13729468Y-10993460D01*
X13729468Y-10993460D02*
X13738991Y-10983936D01*
X13738991Y-10983936D02*
X13748515Y-10964889D01*
X13748515Y-10964889D02*
X13748515Y-10917270D01*
X13748515Y-10917270D02*
X13738991Y-10898222D01*
X13738991Y-10898222D02*
X13729468Y-10888698D01*
X13729468Y-10888698D02*
X13710420Y-10879174D01*
X13710420Y-10879174D02*
X13672325Y-10879174D01*
X13672325Y-10879174D02*
X13653277Y-10888698D01*
X13653277Y-10888698D02*
X13643753Y-10898222D01*
X13643753Y-10898222D02*
X13634229Y-10917270D01*
X13986610Y-11002984D02*
X13986610Y-10802984D01*
X14072325Y-11002984D02*
X14072325Y-10898222D01*
X14072325Y-10898222D02*
X14062801Y-10879174D01*
X14062801Y-10879174D02*
X14043753Y-10869650D01*
X14043753Y-10869650D02*
X14015182Y-10869650D01*
X14015182Y-10869650D02*
X13996134Y-10879174D01*
X13996134Y-10879174D02*
X13986610Y-10888698D01*
X14196134Y-11002984D02*
X14177087Y-10993460D01*
X14177087Y-10993460D02*
X14167563Y-10983936D01*
X14167563Y-10983936D02*
X14158039Y-10964889D01*
X14158039Y-10964889D02*
X14158039Y-10907746D01*
X14158039Y-10907746D02*
X14167563Y-10888698D01*
X14167563Y-10888698D02*
X14177087Y-10879174D01*
X14177087Y-10879174D02*
X14196134Y-10869650D01*
X14196134Y-10869650D02*
X14224706Y-10869650D01*
X14224706Y-10869650D02*
X14243753Y-10879174D01*
X14243753Y-10879174D02*
X14253277Y-10888698D01*
X14253277Y-10888698D02*
X14262801Y-10907746D01*
X14262801Y-10907746D02*
X14262801Y-10964889D01*
X14262801Y-10964889D02*
X14253277Y-10983936D01*
X14253277Y-10983936D02*
X14243753Y-10993460D01*
X14243753Y-10993460D02*
X14224706Y-11002984D01*
X14224706Y-11002984D02*
X14196134Y-11002984D01*
X14377087Y-11002984D02*
X14358039Y-10993460D01*
X14358039Y-10993460D02*
X14348515Y-10974412D01*
X14348515Y-10974412D02*
X14348515Y-10802984D01*
X14529468Y-10993460D02*
X14510420Y-11002984D01*
X14510420Y-11002984D02*
X14472325Y-11002984D01*
X14472325Y-11002984D02*
X14453277Y-10993460D01*
X14453277Y-10993460D02*
X14443753Y-10974412D01*
X14443753Y-10974412D02*
X14443753Y-10898222D01*
X14443753Y-10898222D02*
X14453277Y-10879174D01*
X14453277Y-10879174D02*
X14472325Y-10869650D01*
X14472325Y-10869650D02*
X14510420Y-10869650D01*
X14510420Y-10869650D02*
X14529468Y-10879174D01*
X14529468Y-10879174D02*
X14538991Y-10898222D01*
X14538991Y-10898222D02*
X14538991Y-10917270D01*
X14538991Y-10917270D02*
X14443753Y-10936317D01*
X14615182Y-10993460D02*
X14634230Y-11002984D01*
X14634230Y-11002984D02*
X14672325Y-11002984D01*
X14672325Y-11002984D02*
X14691372Y-10993460D01*
X14691372Y-10993460D02*
X14700896Y-10974412D01*
X14700896Y-10974412D02*
X14700896Y-10964889D01*
X14700896Y-10964889D02*
X14691372Y-10945841D01*
X14691372Y-10945841D02*
X14672325Y-10936317D01*
X14672325Y-10936317D02*
X14643753Y-10936317D01*
X14643753Y-10936317D02*
X14624706Y-10926793D01*
X14624706Y-10926793D02*
X14615182Y-10907746D01*
X14615182Y-10907746D02*
X14615182Y-10898222D01*
X14615182Y-10898222D02*
X14624706Y-10879174D01*
X14624706Y-10879174D02*
X14643753Y-10869650D01*
X14643753Y-10869650D02*
X14672325Y-10869650D01*
X14672325Y-10869650D02*
X14691372Y-10879174D01*
X14767563Y-11079174D02*
X14777087Y-11069650D01*
X14777087Y-11069650D02*
X14796134Y-11041079D01*
X14796134Y-11041079D02*
X14805658Y-11022031D01*
X14805658Y-11022031D02*
X14815182Y-10993460D01*
X14815182Y-10993460D02*
X14824706Y-10945841D01*
X14824706Y-10945841D02*
X14824706Y-10907746D01*
X14824706Y-10907746D02*
X14815182Y-10860127D01*
X14815182Y-10860127D02*
X14805658Y-10831555D01*
X14805658Y-10831555D02*
X14796134Y-10812508D01*
X14796134Y-10812508D02*
X14777087Y-10783936D01*
X14777087Y-10783936D02*
X14767563Y-10774412D01*
D12*
X9952500Y-11135500D02*
X9952500Y-11215500D01*
X9912500Y-11175500D02*
X9992500Y-11175500D01*
D11*
X10291372Y-11066984D02*
X10310420Y-11066984D01*
X10310420Y-11066984D02*
X10329467Y-11076508D01*
X10329467Y-11076508D02*
X10338991Y-11086031D01*
X10338991Y-11086031D02*
X10348515Y-11105079D01*
X10348515Y-11105079D02*
X10358039Y-11143174D01*
X10358039Y-11143174D02*
X10358039Y-11190793D01*
X10358039Y-11190793D02*
X10348515Y-11228888D01*
X10348515Y-11228888D02*
X10338991Y-11247936D01*
X10338991Y-11247936D02*
X10329467Y-11257460D01*
X10329467Y-11257460D02*
X10310420Y-11266984D01*
X10310420Y-11266984D02*
X10291372Y-11266984D01*
X10291372Y-11266984D02*
X10272324Y-11257460D01*
X10272324Y-11257460D02*
X10262801Y-11247936D01*
X10262801Y-11247936D02*
X10253277Y-11228888D01*
X10253277Y-11228888D02*
X10243753Y-11190793D01*
X10243753Y-11190793D02*
X10243753Y-11143174D01*
X10243753Y-11143174D02*
X10253277Y-11105079D01*
X10253277Y-11105079D02*
X10262801Y-11086031D01*
X10262801Y-11086031D02*
X10272324Y-11076508D01*
X10272324Y-11076508D02*
X10291372Y-11066984D01*
X10443753Y-11247936D02*
X10453277Y-11257460D01*
X10453277Y-11257460D02*
X10443753Y-11266984D01*
X10443753Y-11266984D02*
X10434229Y-11257460D01*
X10434229Y-11257460D02*
X10443753Y-11247936D01*
X10443753Y-11247936D02*
X10443753Y-11266984D01*
X10567563Y-11152698D02*
X10548515Y-11143174D01*
X10548515Y-11143174D02*
X10538991Y-11133650D01*
X10538991Y-11133650D02*
X10529467Y-11114603D01*
X10529467Y-11114603D02*
X10529467Y-11105079D01*
X10529467Y-11105079D02*
X10538991Y-11086031D01*
X10538991Y-11086031D02*
X10548515Y-11076508D01*
X10548515Y-11076508D02*
X10567563Y-11066984D01*
X10567563Y-11066984D02*
X10605658Y-11066984D01*
X10605658Y-11066984D02*
X10624705Y-11076508D01*
X10624705Y-11076508D02*
X10634229Y-11086031D01*
X10634229Y-11086031D02*
X10643753Y-11105079D01*
X10643753Y-11105079D02*
X10643753Y-11114603D01*
X10643753Y-11114603D02*
X10634229Y-11133650D01*
X10634229Y-11133650D02*
X10624705Y-11143174D01*
X10624705Y-11143174D02*
X10605658Y-11152698D01*
X10605658Y-11152698D02*
X10567563Y-11152698D01*
X10567563Y-11152698D02*
X10548515Y-11162222D01*
X10548515Y-11162222D02*
X10538991Y-11171746D01*
X10538991Y-11171746D02*
X10529467Y-11190793D01*
X10529467Y-11190793D02*
X10529467Y-11228888D01*
X10529467Y-11228888D02*
X10538991Y-11247936D01*
X10538991Y-11247936D02*
X10548515Y-11257460D01*
X10548515Y-11257460D02*
X10567563Y-11266984D01*
X10567563Y-11266984D02*
X10605658Y-11266984D01*
X10605658Y-11266984D02*
X10624705Y-11257460D01*
X10624705Y-11257460D02*
X10634229Y-11247936D01*
X10634229Y-11247936D02*
X10643753Y-11228888D01*
X10643753Y-11228888D02*
X10643753Y-11190793D01*
X10643753Y-11190793D02*
X10634229Y-11171746D01*
X10634229Y-11171746D02*
X10624705Y-11162222D01*
X10624705Y-11162222D02*
X10605658Y-11152698D01*
X10767563Y-11066984D02*
X10786610Y-11066984D01*
X10786610Y-11066984D02*
X10805658Y-11076508D01*
X10805658Y-11076508D02*
X10815182Y-11086031D01*
X10815182Y-11086031D02*
X10824705Y-11105079D01*
X10824705Y-11105079D02*
X10834229Y-11143174D01*
X10834229Y-11143174D02*
X10834229Y-11190793D01*
X10834229Y-11190793D02*
X10824705Y-11228888D01*
X10824705Y-11228888D02*
X10815182Y-11247936D01*
X10815182Y-11247936D02*
X10805658Y-11257460D01*
X10805658Y-11257460D02*
X10786610Y-11266984D01*
X10786610Y-11266984D02*
X10767563Y-11266984D01*
X10767563Y-11266984D02*
X10748515Y-11257460D01*
X10748515Y-11257460D02*
X10738991Y-11247936D01*
X10738991Y-11247936D02*
X10729467Y-11228888D01*
X10729467Y-11228888D02*
X10719944Y-11190793D01*
X10719944Y-11190793D02*
X10719944Y-11143174D01*
X10719944Y-11143174D02*
X10729467Y-11105079D01*
X10729467Y-11105079D02*
X10738991Y-11086031D01*
X10738991Y-11086031D02*
X10748515Y-11076508D01*
X10748515Y-11076508D02*
X10767563Y-11066984D01*
X10958039Y-11066984D02*
X10977086Y-11066984D01*
X10977086Y-11066984D02*
X10996134Y-11076508D01*
X10996134Y-11076508D02*
X11005658Y-11086031D01*
X11005658Y-11086031D02*
X11015182Y-11105079D01*
X11015182Y-11105079D02*
X11024705Y-11143174D01*
X11024705Y-11143174D02*
X11024705Y-11190793D01*
X11024705Y-11190793D02*
X11015182Y-11228888D01*
X11015182Y-11228888D02*
X11005658Y-11247936D01*
X11005658Y-11247936D02*
X10996134Y-11257460D01*
X10996134Y-11257460D02*
X10977086Y-11266984D01*
X10977086Y-11266984D02*
X10958039Y-11266984D01*
X10958039Y-11266984D02*
X10938991Y-11257460D01*
X10938991Y-11257460D02*
X10929467Y-11247936D01*
X10929467Y-11247936D02*
X10919944Y-11228888D01*
X10919944Y-11228888D02*
X10910420Y-11190793D01*
X10910420Y-11190793D02*
X10910420Y-11143174D01*
X10910420Y-11143174D02*
X10919944Y-11105079D01*
X10919944Y-11105079D02*
X10929467Y-11086031D01*
X10929467Y-11086031D02*
X10938991Y-11076508D01*
X10938991Y-11076508D02*
X10958039Y-11066984D01*
X11110420Y-11266984D02*
X11110420Y-11133650D01*
X11110420Y-11152698D02*
X11119944Y-11143174D01*
X11119944Y-11143174D02*
X11138991Y-11133650D01*
X11138991Y-11133650D02*
X11167563Y-11133650D01*
X11167563Y-11133650D02*
X11186610Y-11143174D01*
X11186610Y-11143174D02*
X11196134Y-11162222D01*
X11196134Y-11162222D02*
X11196134Y-11266984D01*
X11196134Y-11162222D02*
X11205658Y-11143174D01*
X11205658Y-11143174D02*
X11224705Y-11133650D01*
X11224705Y-11133650D02*
X11253277Y-11133650D01*
X11253277Y-11133650D02*
X11272324Y-11143174D01*
X11272324Y-11143174D02*
X11281848Y-11162222D01*
X11281848Y-11162222D02*
X11281848Y-11266984D01*
X11377086Y-11266984D02*
X11377086Y-11133650D01*
X11377086Y-11152698D02*
X11386610Y-11143174D01*
X11386610Y-11143174D02*
X11405658Y-11133650D01*
X11405658Y-11133650D02*
X11434229Y-11133650D01*
X11434229Y-11133650D02*
X11453277Y-11143174D01*
X11453277Y-11143174D02*
X11462801Y-11162222D01*
X11462801Y-11162222D02*
X11462801Y-11266984D01*
X11462801Y-11162222D02*
X11472324Y-11143174D01*
X11472324Y-11143174D02*
X11491372Y-11133650D01*
X11491372Y-11133650D02*
X11519943Y-11133650D01*
X11519943Y-11133650D02*
X11538991Y-11143174D01*
X11538991Y-11143174D02*
X11548515Y-11162222D01*
X11548515Y-11162222D02*
X11548515Y-11266984D01*
X11938991Y-11057460D02*
X11767563Y-11314603D01*
X12196134Y-11066984D02*
X12215182Y-11066984D01*
X12215182Y-11066984D02*
X12234229Y-11076508D01*
X12234229Y-11076508D02*
X12243753Y-11086031D01*
X12243753Y-11086031D02*
X12253277Y-11105079D01*
X12253277Y-11105079D02*
X12262801Y-11143174D01*
X12262801Y-11143174D02*
X12262801Y-11190793D01*
X12262801Y-11190793D02*
X12253277Y-11228888D01*
X12253277Y-11228888D02*
X12243753Y-11247936D01*
X12243753Y-11247936D02*
X12234229Y-11257460D01*
X12234229Y-11257460D02*
X12215182Y-11266984D01*
X12215182Y-11266984D02*
X12196134Y-11266984D01*
X12196134Y-11266984D02*
X12177086Y-11257460D01*
X12177086Y-11257460D02*
X12167563Y-11247936D01*
X12167563Y-11247936D02*
X12158039Y-11228888D01*
X12158039Y-11228888D02*
X12148515Y-11190793D01*
X12148515Y-11190793D02*
X12148515Y-11143174D01*
X12148515Y-11143174D02*
X12158039Y-11105079D01*
X12158039Y-11105079D02*
X12167563Y-11086031D01*
X12167563Y-11086031D02*
X12177086Y-11076508D01*
X12177086Y-11076508D02*
X12196134Y-11066984D01*
X12348515Y-11247936D02*
X12358039Y-11257460D01*
X12358039Y-11257460D02*
X12348515Y-11266984D01*
X12348515Y-11266984D02*
X12338991Y-11257460D01*
X12338991Y-11257460D02*
X12348515Y-11247936D01*
X12348515Y-11247936D02*
X12348515Y-11266984D01*
X12481848Y-11066984D02*
X12500896Y-11066984D01*
X12500896Y-11066984D02*
X12519944Y-11076508D01*
X12519944Y-11076508D02*
X12529467Y-11086031D01*
X12529467Y-11086031D02*
X12538991Y-11105079D01*
X12538991Y-11105079D02*
X12548515Y-11143174D01*
X12548515Y-11143174D02*
X12548515Y-11190793D01*
X12548515Y-11190793D02*
X12538991Y-11228888D01*
X12538991Y-11228888D02*
X12529467Y-11247936D01*
X12529467Y-11247936D02*
X12519944Y-11257460D01*
X12519944Y-11257460D02*
X12500896Y-11266984D01*
X12500896Y-11266984D02*
X12481848Y-11266984D01*
X12481848Y-11266984D02*
X12462801Y-11257460D01*
X12462801Y-11257460D02*
X12453277Y-11247936D01*
X12453277Y-11247936D02*
X12443753Y-11228888D01*
X12443753Y-11228888D02*
X12434229Y-11190793D01*
X12434229Y-11190793D02*
X12434229Y-11143174D01*
X12434229Y-11143174D02*
X12443753Y-11105079D01*
X12443753Y-11105079D02*
X12453277Y-11086031D01*
X12453277Y-11086031D02*
X12462801Y-11076508D01*
X12462801Y-11076508D02*
X12481848Y-11066984D01*
X12615182Y-11066984D02*
X12738991Y-11066984D01*
X12738991Y-11066984D02*
X12672325Y-11143174D01*
X12672325Y-11143174D02*
X12700896Y-11143174D01*
X12700896Y-11143174D02*
X12719944Y-11152698D01*
X12719944Y-11152698D02*
X12729467Y-11162222D01*
X12729467Y-11162222D02*
X12738991Y-11181270D01*
X12738991Y-11181270D02*
X12738991Y-11228888D01*
X12738991Y-11228888D02*
X12729467Y-11247936D01*
X12729467Y-11247936D02*
X12719944Y-11257460D01*
X12719944Y-11257460D02*
X12700896Y-11266984D01*
X12700896Y-11266984D02*
X12643753Y-11266984D01*
X12643753Y-11266984D02*
X12624706Y-11257460D01*
X12624706Y-11257460D02*
X12615182Y-11247936D01*
X12929467Y-11266984D02*
X12815182Y-11266984D01*
X12872325Y-11266984D02*
X12872325Y-11066984D01*
X12872325Y-11066984D02*
X12853277Y-11095555D01*
X12853277Y-11095555D02*
X12834229Y-11114603D01*
X12834229Y-11114603D02*
X12815182Y-11124127D01*
X13110420Y-11066984D02*
X13015182Y-11066984D01*
X13015182Y-11066984D02*
X13005658Y-11162222D01*
X13005658Y-11162222D02*
X13015182Y-11152698D01*
X13015182Y-11152698D02*
X13034229Y-11143174D01*
X13034229Y-11143174D02*
X13081848Y-11143174D01*
X13081848Y-11143174D02*
X13100896Y-11152698D01*
X13100896Y-11152698D02*
X13110420Y-11162222D01*
X13110420Y-11162222D02*
X13119944Y-11181270D01*
X13119944Y-11181270D02*
X13119944Y-11228888D01*
X13119944Y-11228888D02*
X13110420Y-11247936D01*
X13110420Y-11247936D02*
X13100896Y-11257460D01*
X13100896Y-11257460D02*
X13081848Y-11266984D01*
X13081848Y-11266984D02*
X13034229Y-11266984D01*
X13034229Y-11266984D02*
X13015182Y-11257460D01*
X13015182Y-11257460D02*
X13005658Y-11247936D01*
X13196134Y-11066984D02*
X13196134Y-11105079D01*
X13272325Y-11066984D02*
X13272325Y-11105079D01*
X13567563Y-11343174D02*
X13558039Y-11333650D01*
X13558039Y-11333650D02*
X13538991Y-11305079D01*
X13538991Y-11305079D02*
X13529468Y-11286031D01*
X13529468Y-11286031D02*
X13519944Y-11257460D01*
X13519944Y-11257460D02*
X13510420Y-11209841D01*
X13510420Y-11209841D02*
X13510420Y-11171746D01*
X13510420Y-11171746D02*
X13519944Y-11124127D01*
X13519944Y-11124127D02*
X13529468Y-11095555D01*
X13529468Y-11095555D02*
X13538991Y-11076508D01*
X13538991Y-11076508D02*
X13558039Y-11047936D01*
X13558039Y-11047936D02*
X13567563Y-11038412D01*
X13624706Y-11066984D02*
X13748515Y-11066984D01*
X13748515Y-11066984D02*
X13681848Y-11143174D01*
X13681848Y-11143174D02*
X13710420Y-11143174D01*
X13710420Y-11143174D02*
X13729468Y-11152698D01*
X13729468Y-11152698D02*
X13738991Y-11162222D01*
X13738991Y-11162222D02*
X13748515Y-11181270D01*
X13748515Y-11181270D02*
X13748515Y-11228888D01*
X13748515Y-11228888D02*
X13738991Y-11247936D01*
X13738991Y-11247936D02*
X13729468Y-11257460D01*
X13729468Y-11257460D02*
X13710420Y-11266984D01*
X13710420Y-11266984D02*
X13653277Y-11266984D01*
X13653277Y-11266984D02*
X13634229Y-11257460D01*
X13634229Y-11257460D02*
X13624706Y-11247936D01*
X13919944Y-11133650D02*
X13919944Y-11266984D01*
X13872325Y-11057460D02*
X13824706Y-11200317D01*
X13824706Y-11200317D02*
X13948515Y-11200317D01*
X14177087Y-11266984D02*
X14177087Y-11066984D01*
X14262801Y-11266984D02*
X14262801Y-11162222D01*
X14262801Y-11162222D02*
X14253277Y-11143174D01*
X14253277Y-11143174D02*
X14234230Y-11133650D01*
X14234230Y-11133650D02*
X14205658Y-11133650D01*
X14205658Y-11133650D02*
X14186610Y-11143174D01*
X14186610Y-11143174D02*
X14177087Y-11152698D01*
X14386610Y-11266984D02*
X14367563Y-11257460D01*
X14367563Y-11257460D02*
X14358039Y-11247936D01*
X14358039Y-11247936D02*
X14348515Y-11228888D01*
X14348515Y-11228888D02*
X14348515Y-11171746D01*
X14348515Y-11171746D02*
X14358039Y-11152698D01*
X14358039Y-11152698D02*
X14367563Y-11143174D01*
X14367563Y-11143174D02*
X14386610Y-11133650D01*
X14386610Y-11133650D02*
X14415182Y-11133650D01*
X14415182Y-11133650D02*
X14434230Y-11143174D01*
X14434230Y-11143174D02*
X14443753Y-11152698D01*
X14443753Y-11152698D02*
X14453277Y-11171746D01*
X14453277Y-11171746D02*
X14453277Y-11228888D01*
X14453277Y-11228888D02*
X14443753Y-11247936D01*
X14443753Y-11247936D02*
X14434230Y-11257460D01*
X14434230Y-11257460D02*
X14415182Y-11266984D01*
X14415182Y-11266984D02*
X14386610Y-11266984D01*
X14567563Y-11266984D02*
X14548515Y-11257460D01*
X14548515Y-11257460D02*
X14538991Y-11238412D01*
X14538991Y-11238412D02*
X14538991Y-11066984D01*
X14719944Y-11257460D02*
X14700896Y-11266984D01*
X14700896Y-11266984D02*
X14662801Y-11266984D01*
X14662801Y-11266984D02*
X14643753Y-11257460D01*
X14643753Y-11257460D02*
X14634230Y-11238412D01*
X14634230Y-11238412D02*
X14634230Y-11162222D01*
X14634230Y-11162222D02*
X14643753Y-11143174D01*
X14643753Y-11143174D02*
X14662801Y-11133650D01*
X14662801Y-11133650D02*
X14700896Y-11133650D01*
X14700896Y-11133650D02*
X14719944Y-11143174D01*
X14719944Y-11143174D02*
X14729468Y-11162222D01*
X14729468Y-11162222D02*
X14729468Y-11181270D01*
X14729468Y-11181270D02*
X14634230Y-11200317D01*
X14805658Y-11257460D02*
X14824706Y-11266984D01*
X14824706Y-11266984D02*
X14862801Y-11266984D01*
X14862801Y-11266984D02*
X14881849Y-11257460D01*
X14881849Y-11257460D02*
X14891372Y-11238412D01*
X14891372Y-11238412D02*
X14891372Y-11228888D01*
X14891372Y-11228888D02*
X14881849Y-11209841D01*
X14881849Y-11209841D02*
X14862801Y-11200317D01*
X14862801Y-11200317D02*
X14834230Y-11200317D01*
X14834230Y-11200317D02*
X14815182Y-11190793D01*
X14815182Y-11190793D02*
X14805658Y-11171746D01*
X14805658Y-11171746D02*
X14805658Y-11162222D01*
X14805658Y-11162222D02*
X14815182Y-11143174D01*
X14815182Y-11143174D02*
X14834230Y-11133650D01*
X14834230Y-11133650D02*
X14862801Y-11133650D01*
X14862801Y-11133650D02*
X14881849Y-11143174D01*
X14958039Y-11343174D02*
X14967563Y-11333650D01*
X14967563Y-11333650D02*
X14986611Y-11305079D01*
X14986611Y-11305079D02*
X14996134Y-11286031D01*
X14996134Y-11286031D02*
X15005658Y-11257460D01*
X15005658Y-11257460D02*
X15015182Y-11209841D01*
X15015182Y-11209841D02*
X15015182Y-11171746D01*
X15015182Y-11171746D02*
X15005658Y-11124127D01*
X15005658Y-11124127D02*
X14996134Y-11095555D01*
X14996134Y-11095555D02*
X14986611Y-11076508D01*
X14986611Y-11076508D02*
X14967563Y-11047936D01*
X14967563Y-11047936D02*
X14958039Y-11038412D01*
D12*
X9979320Y-11471320D02*
X9979320Y-11407680D01*
X9915680Y-11407680D01*
X9915680Y-11471320D01*
X9979320Y-11471320D01*
D11*
X10291372Y-11330984D02*
X10310420Y-11330984D01*
X10310420Y-11330984D02*
X10329467Y-11340508D01*
X10329467Y-11340508D02*
X10338991Y-11350031D01*
X10338991Y-11350031D02*
X10348515Y-11369079D01*
X10348515Y-11369079D02*
X10358039Y-11407174D01*
X10358039Y-11407174D02*
X10358039Y-11454793D01*
X10358039Y-11454793D02*
X10348515Y-11492888D01*
X10348515Y-11492888D02*
X10338991Y-11511936D01*
X10338991Y-11511936D02*
X10329467Y-11521460D01*
X10329467Y-11521460D02*
X10310420Y-11530984D01*
X10310420Y-11530984D02*
X10291372Y-11530984D01*
X10291372Y-11530984D02*
X10272324Y-11521460D01*
X10272324Y-11521460D02*
X10262801Y-11511936D01*
X10262801Y-11511936D02*
X10253277Y-11492888D01*
X10253277Y-11492888D02*
X10243753Y-11454793D01*
X10243753Y-11454793D02*
X10243753Y-11407174D01*
X10243753Y-11407174D02*
X10253277Y-11369079D01*
X10253277Y-11369079D02*
X10262801Y-11350031D01*
X10262801Y-11350031D02*
X10272324Y-11340508D01*
X10272324Y-11340508D02*
X10291372Y-11330984D01*
X10443753Y-11511936D02*
X10453277Y-11521460D01*
X10453277Y-11521460D02*
X10443753Y-11530984D01*
X10443753Y-11530984D02*
X10434229Y-11521460D01*
X10434229Y-11521460D02*
X10443753Y-11511936D01*
X10443753Y-11511936D02*
X10443753Y-11530984D01*
X10548515Y-11530984D02*
X10586610Y-11530984D01*
X10586610Y-11530984D02*
X10605658Y-11521460D01*
X10605658Y-11521460D02*
X10615182Y-11511936D01*
X10615182Y-11511936D02*
X10634229Y-11483365D01*
X10634229Y-11483365D02*
X10643753Y-11445269D01*
X10643753Y-11445269D02*
X10643753Y-11369079D01*
X10643753Y-11369079D02*
X10634229Y-11350031D01*
X10634229Y-11350031D02*
X10624705Y-11340508D01*
X10624705Y-11340508D02*
X10605658Y-11330984D01*
X10605658Y-11330984D02*
X10567563Y-11330984D01*
X10567563Y-11330984D02*
X10548515Y-11340508D01*
X10548515Y-11340508D02*
X10538991Y-11350031D01*
X10538991Y-11350031D02*
X10529467Y-11369079D01*
X10529467Y-11369079D02*
X10529467Y-11416698D01*
X10529467Y-11416698D02*
X10538991Y-11435746D01*
X10538991Y-11435746D02*
X10548515Y-11445269D01*
X10548515Y-11445269D02*
X10567563Y-11454793D01*
X10567563Y-11454793D02*
X10605658Y-11454793D01*
X10605658Y-11454793D02*
X10624705Y-11445269D01*
X10624705Y-11445269D02*
X10634229Y-11435746D01*
X10634229Y-11435746D02*
X10643753Y-11416698D01*
X10767563Y-11330984D02*
X10786610Y-11330984D01*
X10786610Y-11330984D02*
X10805658Y-11340508D01*
X10805658Y-11340508D02*
X10815182Y-11350031D01*
X10815182Y-11350031D02*
X10824705Y-11369079D01*
X10824705Y-11369079D02*
X10834229Y-11407174D01*
X10834229Y-11407174D02*
X10834229Y-11454793D01*
X10834229Y-11454793D02*
X10824705Y-11492888D01*
X10824705Y-11492888D02*
X10815182Y-11511936D01*
X10815182Y-11511936D02*
X10805658Y-11521460D01*
X10805658Y-11521460D02*
X10786610Y-11530984D01*
X10786610Y-11530984D02*
X10767563Y-11530984D01*
X10767563Y-11530984D02*
X10748515Y-11521460D01*
X10748515Y-11521460D02*
X10738991Y-11511936D01*
X10738991Y-11511936D02*
X10729467Y-11492888D01*
X10729467Y-11492888D02*
X10719944Y-11454793D01*
X10719944Y-11454793D02*
X10719944Y-11407174D01*
X10719944Y-11407174D02*
X10729467Y-11369079D01*
X10729467Y-11369079D02*
X10738991Y-11350031D01*
X10738991Y-11350031D02*
X10748515Y-11340508D01*
X10748515Y-11340508D02*
X10767563Y-11330984D01*
X10958039Y-11330984D02*
X10977086Y-11330984D01*
X10977086Y-11330984D02*
X10996134Y-11340508D01*
X10996134Y-11340508D02*
X11005658Y-11350031D01*
X11005658Y-11350031D02*
X11015182Y-11369079D01*
X11015182Y-11369079D02*
X11024705Y-11407174D01*
X11024705Y-11407174D02*
X11024705Y-11454793D01*
X11024705Y-11454793D02*
X11015182Y-11492888D01*
X11015182Y-11492888D02*
X11005658Y-11511936D01*
X11005658Y-11511936D02*
X10996134Y-11521460D01*
X10996134Y-11521460D02*
X10977086Y-11530984D01*
X10977086Y-11530984D02*
X10958039Y-11530984D01*
X10958039Y-11530984D02*
X10938991Y-11521460D01*
X10938991Y-11521460D02*
X10929467Y-11511936D01*
X10929467Y-11511936D02*
X10919944Y-11492888D01*
X10919944Y-11492888D02*
X10910420Y-11454793D01*
X10910420Y-11454793D02*
X10910420Y-11407174D01*
X10910420Y-11407174D02*
X10919944Y-11369079D01*
X10919944Y-11369079D02*
X10929467Y-11350031D01*
X10929467Y-11350031D02*
X10938991Y-11340508D01*
X10938991Y-11340508D02*
X10958039Y-11330984D01*
X11110420Y-11530984D02*
X11110420Y-11397650D01*
X11110420Y-11416698D02*
X11119944Y-11407174D01*
X11119944Y-11407174D02*
X11138991Y-11397650D01*
X11138991Y-11397650D02*
X11167563Y-11397650D01*
X11167563Y-11397650D02*
X11186610Y-11407174D01*
X11186610Y-11407174D02*
X11196134Y-11426222D01*
X11196134Y-11426222D02*
X11196134Y-11530984D01*
X11196134Y-11426222D02*
X11205658Y-11407174D01*
X11205658Y-11407174D02*
X11224705Y-11397650D01*
X11224705Y-11397650D02*
X11253277Y-11397650D01*
X11253277Y-11397650D02*
X11272324Y-11407174D01*
X11272324Y-11407174D02*
X11281848Y-11426222D01*
X11281848Y-11426222D02*
X11281848Y-11530984D01*
X11377086Y-11530984D02*
X11377086Y-11397650D01*
X11377086Y-11416698D02*
X11386610Y-11407174D01*
X11386610Y-11407174D02*
X11405658Y-11397650D01*
X11405658Y-11397650D02*
X11434229Y-11397650D01*
X11434229Y-11397650D02*
X11453277Y-11407174D01*
X11453277Y-11407174D02*
X11462801Y-11426222D01*
X11462801Y-11426222D02*
X11462801Y-11530984D01*
X11462801Y-11426222D02*
X11472324Y-11407174D01*
X11472324Y-11407174D02*
X11491372Y-11397650D01*
X11491372Y-11397650D02*
X11519943Y-11397650D01*
X11519943Y-11397650D02*
X11538991Y-11407174D01*
X11538991Y-11407174D02*
X11548515Y-11426222D01*
X11548515Y-11426222D02*
X11548515Y-11530984D01*
X11938991Y-11321460D02*
X11767563Y-11578603D01*
X12196134Y-11330984D02*
X12215182Y-11330984D01*
X12215182Y-11330984D02*
X12234229Y-11340508D01*
X12234229Y-11340508D02*
X12243753Y-11350031D01*
X12243753Y-11350031D02*
X12253277Y-11369079D01*
X12253277Y-11369079D02*
X12262801Y-11407174D01*
X12262801Y-11407174D02*
X12262801Y-11454793D01*
X12262801Y-11454793D02*
X12253277Y-11492888D01*
X12253277Y-11492888D02*
X12243753Y-11511936D01*
X12243753Y-11511936D02*
X12234229Y-11521460D01*
X12234229Y-11521460D02*
X12215182Y-11530984D01*
X12215182Y-11530984D02*
X12196134Y-11530984D01*
X12196134Y-11530984D02*
X12177086Y-11521460D01*
X12177086Y-11521460D02*
X12167563Y-11511936D01*
X12167563Y-11511936D02*
X12158039Y-11492888D01*
X12158039Y-11492888D02*
X12148515Y-11454793D01*
X12148515Y-11454793D02*
X12148515Y-11407174D01*
X12148515Y-11407174D02*
X12158039Y-11369079D01*
X12158039Y-11369079D02*
X12167563Y-11350031D01*
X12167563Y-11350031D02*
X12177086Y-11340508D01*
X12177086Y-11340508D02*
X12196134Y-11330984D01*
X12348515Y-11511936D02*
X12358039Y-11521460D01*
X12358039Y-11521460D02*
X12348515Y-11530984D01*
X12348515Y-11530984D02*
X12338991Y-11521460D01*
X12338991Y-11521460D02*
X12348515Y-11511936D01*
X12348515Y-11511936D02*
X12348515Y-11530984D01*
X12481848Y-11330984D02*
X12500896Y-11330984D01*
X12500896Y-11330984D02*
X12519944Y-11340508D01*
X12519944Y-11340508D02*
X12529467Y-11350031D01*
X12529467Y-11350031D02*
X12538991Y-11369079D01*
X12538991Y-11369079D02*
X12548515Y-11407174D01*
X12548515Y-11407174D02*
X12548515Y-11454793D01*
X12548515Y-11454793D02*
X12538991Y-11492888D01*
X12538991Y-11492888D02*
X12529467Y-11511936D01*
X12529467Y-11511936D02*
X12519944Y-11521460D01*
X12519944Y-11521460D02*
X12500896Y-11530984D01*
X12500896Y-11530984D02*
X12481848Y-11530984D01*
X12481848Y-11530984D02*
X12462801Y-11521460D01*
X12462801Y-11521460D02*
X12453277Y-11511936D01*
X12453277Y-11511936D02*
X12443753Y-11492888D01*
X12443753Y-11492888D02*
X12434229Y-11454793D01*
X12434229Y-11454793D02*
X12434229Y-11407174D01*
X12434229Y-11407174D02*
X12443753Y-11369079D01*
X12443753Y-11369079D02*
X12453277Y-11350031D01*
X12453277Y-11350031D02*
X12462801Y-11340508D01*
X12462801Y-11340508D02*
X12481848Y-11330984D01*
X12615182Y-11330984D02*
X12738991Y-11330984D01*
X12738991Y-11330984D02*
X12672325Y-11407174D01*
X12672325Y-11407174D02*
X12700896Y-11407174D01*
X12700896Y-11407174D02*
X12719944Y-11416698D01*
X12719944Y-11416698D02*
X12729467Y-11426222D01*
X12729467Y-11426222D02*
X12738991Y-11445269D01*
X12738991Y-11445269D02*
X12738991Y-11492888D01*
X12738991Y-11492888D02*
X12729467Y-11511936D01*
X12729467Y-11511936D02*
X12719944Y-11521460D01*
X12719944Y-11521460D02*
X12700896Y-11530984D01*
X12700896Y-11530984D02*
X12643753Y-11530984D01*
X12643753Y-11530984D02*
X12624706Y-11521460D01*
X12624706Y-11521460D02*
X12615182Y-11511936D01*
X12919944Y-11330984D02*
X12824706Y-11330984D01*
X12824706Y-11330984D02*
X12815182Y-11426222D01*
X12815182Y-11426222D02*
X12824706Y-11416698D01*
X12824706Y-11416698D02*
X12843753Y-11407174D01*
X12843753Y-11407174D02*
X12891372Y-11407174D01*
X12891372Y-11407174D02*
X12910420Y-11416698D01*
X12910420Y-11416698D02*
X12919944Y-11426222D01*
X12919944Y-11426222D02*
X12929467Y-11445269D01*
X12929467Y-11445269D02*
X12929467Y-11492888D01*
X12929467Y-11492888D02*
X12919944Y-11511936D01*
X12919944Y-11511936D02*
X12910420Y-11521460D01*
X12910420Y-11521460D02*
X12891372Y-11530984D01*
X12891372Y-11530984D02*
X12843753Y-11530984D01*
X12843753Y-11530984D02*
X12824706Y-11521460D01*
X12824706Y-11521460D02*
X12815182Y-11511936D01*
X13100896Y-11397650D02*
X13100896Y-11530984D01*
X13053277Y-11321460D02*
X13005658Y-11464317D01*
X13005658Y-11464317D02*
X13129467Y-11464317D01*
X13196134Y-11330984D02*
X13196134Y-11369079D01*
X13272325Y-11330984D02*
X13272325Y-11369079D01*
X13567563Y-11607174D02*
X13558039Y-11597650D01*
X13558039Y-11597650D02*
X13538991Y-11569079D01*
X13538991Y-11569079D02*
X13529468Y-11550031D01*
X13529468Y-11550031D02*
X13519944Y-11521460D01*
X13519944Y-11521460D02*
X13510420Y-11473841D01*
X13510420Y-11473841D02*
X13510420Y-11435746D01*
X13510420Y-11435746D02*
X13519944Y-11388127D01*
X13519944Y-11388127D02*
X13529468Y-11359555D01*
X13529468Y-11359555D02*
X13538991Y-11340508D01*
X13538991Y-11340508D02*
X13558039Y-11311936D01*
X13558039Y-11311936D02*
X13567563Y-11302412D01*
X13634229Y-11350031D02*
X13643753Y-11340508D01*
X13643753Y-11340508D02*
X13662801Y-11330984D01*
X13662801Y-11330984D02*
X13710420Y-11330984D01*
X13710420Y-11330984D02*
X13729468Y-11340508D01*
X13729468Y-11340508D02*
X13738991Y-11350031D01*
X13738991Y-11350031D02*
X13748515Y-11369079D01*
X13748515Y-11369079D02*
X13748515Y-11388127D01*
X13748515Y-11388127D02*
X13738991Y-11416698D01*
X13738991Y-11416698D02*
X13624706Y-11530984D01*
X13624706Y-11530984D02*
X13748515Y-11530984D01*
X13986610Y-11530984D02*
X13986610Y-11330984D01*
X14072325Y-11530984D02*
X14072325Y-11426222D01*
X14072325Y-11426222D02*
X14062801Y-11407174D01*
X14062801Y-11407174D02*
X14043753Y-11397650D01*
X14043753Y-11397650D02*
X14015182Y-11397650D01*
X14015182Y-11397650D02*
X13996134Y-11407174D01*
X13996134Y-11407174D02*
X13986610Y-11416698D01*
X14196134Y-11530984D02*
X14177087Y-11521460D01*
X14177087Y-11521460D02*
X14167563Y-11511936D01*
X14167563Y-11511936D02*
X14158039Y-11492888D01*
X14158039Y-11492888D02*
X14158039Y-11435746D01*
X14158039Y-11435746D02*
X14167563Y-11416698D01*
X14167563Y-11416698D02*
X14177087Y-11407174D01*
X14177087Y-11407174D02*
X14196134Y-11397650D01*
X14196134Y-11397650D02*
X14224706Y-11397650D01*
X14224706Y-11397650D02*
X14243753Y-11407174D01*
X14243753Y-11407174D02*
X14253277Y-11416698D01*
X14253277Y-11416698D02*
X14262801Y-11435746D01*
X14262801Y-11435746D02*
X14262801Y-11492888D01*
X14262801Y-11492888D02*
X14253277Y-11511936D01*
X14253277Y-11511936D02*
X14243753Y-11521460D01*
X14243753Y-11521460D02*
X14224706Y-11530984D01*
X14224706Y-11530984D02*
X14196134Y-11530984D01*
X14377087Y-11530984D02*
X14358039Y-11521460D01*
X14358039Y-11521460D02*
X14348515Y-11502412D01*
X14348515Y-11502412D02*
X14348515Y-11330984D01*
X14529468Y-11521460D02*
X14510420Y-11530984D01*
X14510420Y-11530984D02*
X14472325Y-11530984D01*
X14472325Y-11530984D02*
X14453277Y-11521460D01*
X14453277Y-11521460D02*
X14443753Y-11502412D01*
X14443753Y-11502412D02*
X14443753Y-11426222D01*
X14443753Y-11426222D02*
X14453277Y-11407174D01*
X14453277Y-11407174D02*
X14472325Y-11397650D01*
X14472325Y-11397650D02*
X14510420Y-11397650D01*
X14510420Y-11397650D02*
X14529468Y-11407174D01*
X14529468Y-11407174D02*
X14538991Y-11426222D01*
X14538991Y-11426222D02*
X14538991Y-11445269D01*
X14538991Y-11445269D02*
X14443753Y-11464317D01*
X14615182Y-11521460D02*
X14634230Y-11530984D01*
X14634230Y-11530984D02*
X14672325Y-11530984D01*
X14672325Y-11530984D02*
X14691372Y-11521460D01*
X14691372Y-11521460D02*
X14700896Y-11502412D01*
X14700896Y-11502412D02*
X14700896Y-11492888D01*
X14700896Y-11492888D02*
X14691372Y-11473841D01*
X14691372Y-11473841D02*
X14672325Y-11464317D01*
X14672325Y-11464317D02*
X14643753Y-11464317D01*
X14643753Y-11464317D02*
X14624706Y-11454793D01*
X14624706Y-11454793D02*
X14615182Y-11435746D01*
X14615182Y-11435746D02*
X14615182Y-11426222D01*
X14615182Y-11426222D02*
X14624706Y-11407174D01*
X14624706Y-11407174D02*
X14643753Y-11397650D01*
X14643753Y-11397650D02*
X14672325Y-11397650D01*
X14672325Y-11397650D02*
X14691372Y-11407174D01*
X14767563Y-11607174D02*
X14777087Y-11597650D01*
X14777087Y-11597650D02*
X14796134Y-11569079D01*
X14796134Y-11569079D02*
X14805658Y-11550031D01*
X14805658Y-11550031D02*
X14815182Y-11521460D01*
X14815182Y-11521460D02*
X14824706Y-11473841D01*
X14824706Y-11473841D02*
X14824706Y-11435746D01*
X14824706Y-11435746D02*
X14815182Y-11388127D01*
X14815182Y-11388127D02*
X14805658Y-11359555D01*
X14805658Y-11359555D02*
X14796134Y-11340508D01*
X14796134Y-11340508D02*
X14777087Y-11311936D01*
X14777087Y-11311936D02*
X14767563Y-11302412D01*
D12*
X9942500Y-11753500D02*
X9992500Y-11703500D01*
X9942500Y-11653500D01*
X9892500Y-11703500D01*
X9942500Y-11753500D01*
D11*
X10358039Y-11794984D02*
X10243753Y-11794984D01*
X10300896Y-11794984D02*
X10300896Y-11594984D01*
X10300896Y-11594984D02*
X10281848Y-11623555D01*
X10281848Y-11623555D02*
X10262801Y-11642603D01*
X10262801Y-11642603D02*
X10243753Y-11652127D01*
X10443753Y-11775936D02*
X10453277Y-11785460D01*
X10453277Y-11785460D02*
X10443753Y-11794984D01*
X10443753Y-11794984D02*
X10434229Y-11785460D01*
X10434229Y-11785460D02*
X10443753Y-11775936D01*
X10443753Y-11775936D02*
X10443753Y-11794984D01*
X10577086Y-11594984D02*
X10596134Y-11594984D01*
X10596134Y-11594984D02*
X10615182Y-11604508D01*
X10615182Y-11604508D02*
X10624705Y-11614031D01*
X10624705Y-11614031D02*
X10634229Y-11633079D01*
X10634229Y-11633079D02*
X10643753Y-11671174D01*
X10643753Y-11671174D02*
X10643753Y-11718793D01*
X10643753Y-11718793D02*
X10634229Y-11756888D01*
X10634229Y-11756888D02*
X10624705Y-11775936D01*
X10624705Y-11775936D02*
X10615182Y-11785460D01*
X10615182Y-11785460D02*
X10596134Y-11794984D01*
X10596134Y-11794984D02*
X10577086Y-11794984D01*
X10577086Y-11794984D02*
X10558039Y-11785460D01*
X10558039Y-11785460D02*
X10548515Y-11775936D01*
X10548515Y-11775936D02*
X10538991Y-11756888D01*
X10538991Y-11756888D02*
X10529467Y-11718793D01*
X10529467Y-11718793D02*
X10529467Y-11671174D01*
X10529467Y-11671174D02*
X10538991Y-11633079D01*
X10538991Y-11633079D02*
X10548515Y-11614031D01*
X10548515Y-11614031D02*
X10558039Y-11604508D01*
X10558039Y-11604508D02*
X10577086Y-11594984D01*
X10767563Y-11594984D02*
X10786610Y-11594984D01*
X10786610Y-11594984D02*
X10805658Y-11604508D01*
X10805658Y-11604508D02*
X10815182Y-11614031D01*
X10815182Y-11614031D02*
X10824705Y-11633079D01*
X10824705Y-11633079D02*
X10834229Y-11671174D01*
X10834229Y-11671174D02*
X10834229Y-11718793D01*
X10834229Y-11718793D02*
X10824705Y-11756888D01*
X10824705Y-11756888D02*
X10815182Y-11775936D01*
X10815182Y-11775936D02*
X10805658Y-11785460D01*
X10805658Y-11785460D02*
X10786610Y-11794984D01*
X10786610Y-11794984D02*
X10767563Y-11794984D01*
X10767563Y-11794984D02*
X10748515Y-11785460D01*
X10748515Y-11785460D02*
X10738991Y-11775936D01*
X10738991Y-11775936D02*
X10729467Y-11756888D01*
X10729467Y-11756888D02*
X10719944Y-11718793D01*
X10719944Y-11718793D02*
X10719944Y-11671174D01*
X10719944Y-11671174D02*
X10729467Y-11633079D01*
X10729467Y-11633079D02*
X10738991Y-11614031D01*
X10738991Y-11614031D02*
X10748515Y-11604508D01*
X10748515Y-11604508D02*
X10767563Y-11594984D01*
X10958039Y-11594984D02*
X10977086Y-11594984D01*
X10977086Y-11594984D02*
X10996134Y-11604508D01*
X10996134Y-11604508D02*
X11005658Y-11614031D01*
X11005658Y-11614031D02*
X11015182Y-11633079D01*
X11015182Y-11633079D02*
X11024705Y-11671174D01*
X11024705Y-11671174D02*
X11024705Y-11718793D01*
X11024705Y-11718793D02*
X11015182Y-11756888D01*
X11015182Y-11756888D02*
X11005658Y-11775936D01*
X11005658Y-11775936D02*
X10996134Y-11785460D01*
X10996134Y-11785460D02*
X10977086Y-11794984D01*
X10977086Y-11794984D02*
X10958039Y-11794984D01*
X10958039Y-11794984D02*
X10938991Y-11785460D01*
X10938991Y-11785460D02*
X10929467Y-11775936D01*
X10929467Y-11775936D02*
X10919944Y-11756888D01*
X10919944Y-11756888D02*
X10910420Y-11718793D01*
X10910420Y-11718793D02*
X10910420Y-11671174D01*
X10910420Y-11671174D02*
X10919944Y-11633079D01*
X10919944Y-11633079D02*
X10929467Y-11614031D01*
X10929467Y-11614031D02*
X10938991Y-11604508D01*
X10938991Y-11604508D02*
X10958039Y-11594984D01*
X11110420Y-11794984D02*
X11110420Y-11661650D01*
X11110420Y-11680698D02*
X11119944Y-11671174D01*
X11119944Y-11671174D02*
X11138991Y-11661650D01*
X11138991Y-11661650D02*
X11167563Y-11661650D01*
X11167563Y-11661650D02*
X11186610Y-11671174D01*
X11186610Y-11671174D02*
X11196134Y-11690222D01*
X11196134Y-11690222D02*
X11196134Y-11794984D01*
X11196134Y-11690222D02*
X11205658Y-11671174D01*
X11205658Y-11671174D02*
X11224705Y-11661650D01*
X11224705Y-11661650D02*
X11253277Y-11661650D01*
X11253277Y-11661650D02*
X11272324Y-11671174D01*
X11272324Y-11671174D02*
X11281848Y-11690222D01*
X11281848Y-11690222D02*
X11281848Y-11794984D01*
X11377086Y-11794984D02*
X11377086Y-11661650D01*
X11377086Y-11680698D02*
X11386610Y-11671174D01*
X11386610Y-11671174D02*
X11405658Y-11661650D01*
X11405658Y-11661650D02*
X11434229Y-11661650D01*
X11434229Y-11661650D02*
X11453277Y-11671174D01*
X11453277Y-11671174D02*
X11462801Y-11690222D01*
X11462801Y-11690222D02*
X11462801Y-11794984D01*
X11462801Y-11690222D02*
X11472324Y-11671174D01*
X11472324Y-11671174D02*
X11491372Y-11661650D01*
X11491372Y-11661650D02*
X11519943Y-11661650D01*
X11519943Y-11661650D02*
X11538991Y-11671174D01*
X11538991Y-11671174D02*
X11548515Y-11690222D01*
X11548515Y-11690222D02*
X11548515Y-11794984D01*
X11938991Y-11585460D02*
X11767563Y-11842603D01*
X12196134Y-11594984D02*
X12215182Y-11594984D01*
X12215182Y-11594984D02*
X12234229Y-11604508D01*
X12234229Y-11604508D02*
X12243753Y-11614031D01*
X12243753Y-11614031D02*
X12253277Y-11633079D01*
X12253277Y-11633079D02*
X12262801Y-11671174D01*
X12262801Y-11671174D02*
X12262801Y-11718793D01*
X12262801Y-11718793D02*
X12253277Y-11756888D01*
X12253277Y-11756888D02*
X12243753Y-11775936D01*
X12243753Y-11775936D02*
X12234229Y-11785460D01*
X12234229Y-11785460D02*
X12215182Y-11794984D01*
X12215182Y-11794984D02*
X12196134Y-11794984D01*
X12196134Y-11794984D02*
X12177086Y-11785460D01*
X12177086Y-11785460D02*
X12167563Y-11775936D01*
X12167563Y-11775936D02*
X12158039Y-11756888D01*
X12158039Y-11756888D02*
X12148515Y-11718793D01*
X12148515Y-11718793D02*
X12148515Y-11671174D01*
X12148515Y-11671174D02*
X12158039Y-11633079D01*
X12158039Y-11633079D02*
X12167563Y-11614031D01*
X12167563Y-11614031D02*
X12177086Y-11604508D01*
X12177086Y-11604508D02*
X12196134Y-11594984D01*
X12348515Y-11775936D02*
X12358039Y-11785460D01*
X12358039Y-11785460D02*
X12348515Y-11794984D01*
X12348515Y-11794984D02*
X12338991Y-11785460D01*
X12338991Y-11785460D02*
X12348515Y-11775936D01*
X12348515Y-11775936D02*
X12348515Y-11794984D01*
X12481848Y-11594984D02*
X12500896Y-11594984D01*
X12500896Y-11594984D02*
X12519944Y-11604508D01*
X12519944Y-11604508D02*
X12529467Y-11614031D01*
X12529467Y-11614031D02*
X12538991Y-11633079D01*
X12538991Y-11633079D02*
X12548515Y-11671174D01*
X12548515Y-11671174D02*
X12548515Y-11718793D01*
X12548515Y-11718793D02*
X12538991Y-11756888D01*
X12538991Y-11756888D02*
X12529467Y-11775936D01*
X12529467Y-11775936D02*
X12519944Y-11785460D01*
X12519944Y-11785460D02*
X12500896Y-11794984D01*
X12500896Y-11794984D02*
X12481848Y-11794984D01*
X12481848Y-11794984D02*
X12462801Y-11785460D01*
X12462801Y-11785460D02*
X12453277Y-11775936D01*
X12453277Y-11775936D02*
X12443753Y-11756888D01*
X12443753Y-11756888D02*
X12434229Y-11718793D01*
X12434229Y-11718793D02*
X12434229Y-11671174D01*
X12434229Y-11671174D02*
X12443753Y-11633079D01*
X12443753Y-11633079D02*
X12453277Y-11614031D01*
X12453277Y-11614031D02*
X12462801Y-11604508D01*
X12462801Y-11604508D02*
X12481848Y-11594984D01*
X12615182Y-11594984D02*
X12738991Y-11594984D01*
X12738991Y-11594984D02*
X12672325Y-11671174D01*
X12672325Y-11671174D02*
X12700896Y-11671174D01*
X12700896Y-11671174D02*
X12719944Y-11680698D01*
X12719944Y-11680698D02*
X12729467Y-11690222D01*
X12729467Y-11690222D02*
X12738991Y-11709269D01*
X12738991Y-11709269D02*
X12738991Y-11756888D01*
X12738991Y-11756888D02*
X12729467Y-11775936D01*
X12729467Y-11775936D02*
X12719944Y-11785460D01*
X12719944Y-11785460D02*
X12700896Y-11794984D01*
X12700896Y-11794984D02*
X12643753Y-11794984D01*
X12643753Y-11794984D02*
X12624706Y-11785460D01*
X12624706Y-11785460D02*
X12615182Y-11775936D01*
X12834229Y-11794984D02*
X12872325Y-11794984D01*
X12872325Y-11794984D02*
X12891372Y-11785460D01*
X12891372Y-11785460D02*
X12900896Y-11775936D01*
X12900896Y-11775936D02*
X12919944Y-11747365D01*
X12919944Y-11747365D02*
X12929467Y-11709269D01*
X12929467Y-11709269D02*
X12929467Y-11633079D01*
X12929467Y-11633079D02*
X12919944Y-11614031D01*
X12919944Y-11614031D02*
X12910420Y-11604508D01*
X12910420Y-11604508D02*
X12891372Y-11594984D01*
X12891372Y-11594984D02*
X12853277Y-11594984D01*
X12853277Y-11594984D02*
X12834229Y-11604508D01*
X12834229Y-11604508D02*
X12824706Y-11614031D01*
X12824706Y-11614031D02*
X12815182Y-11633079D01*
X12815182Y-11633079D02*
X12815182Y-11680698D01*
X12815182Y-11680698D02*
X12824706Y-11699746D01*
X12824706Y-11699746D02*
X12834229Y-11709269D01*
X12834229Y-11709269D02*
X12853277Y-11718793D01*
X12853277Y-11718793D02*
X12891372Y-11718793D01*
X12891372Y-11718793D02*
X12910420Y-11709269D01*
X12910420Y-11709269D02*
X12919944Y-11699746D01*
X12919944Y-11699746D02*
X12929467Y-11680698D01*
X13100896Y-11661650D02*
X13100896Y-11794984D01*
X13053277Y-11585460D02*
X13005658Y-11728317D01*
X13005658Y-11728317D02*
X13129467Y-11728317D01*
X13196134Y-11594984D02*
X13196134Y-11633079D01*
X13272325Y-11594984D02*
X13272325Y-11633079D01*
X13567563Y-11871174D02*
X13558039Y-11861650D01*
X13558039Y-11861650D02*
X13538991Y-11833079D01*
X13538991Y-11833079D02*
X13529468Y-11814031D01*
X13529468Y-11814031D02*
X13519944Y-11785460D01*
X13519944Y-11785460D02*
X13510420Y-11737841D01*
X13510420Y-11737841D02*
X13510420Y-11699746D01*
X13510420Y-11699746D02*
X13519944Y-11652127D01*
X13519944Y-11652127D02*
X13529468Y-11623555D01*
X13529468Y-11623555D02*
X13538991Y-11604508D01*
X13538991Y-11604508D02*
X13558039Y-11575936D01*
X13558039Y-11575936D02*
X13567563Y-11566412D01*
X13738991Y-11594984D02*
X13643753Y-11594984D01*
X13643753Y-11594984D02*
X13634229Y-11690222D01*
X13634229Y-11690222D02*
X13643753Y-11680698D01*
X13643753Y-11680698D02*
X13662801Y-11671174D01*
X13662801Y-11671174D02*
X13710420Y-11671174D01*
X13710420Y-11671174D02*
X13729468Y-11680698D01*
X13729468Y-11680698D02*
X13738991Y-11690222D01*
X13738991Y-11690222D02*
X13748515Y-11709269D01*
X13748515Y-11709269D02*
X13748515Y-11756888D01*
X13748515Y-11756888D02*
X13738991Y-11775936D01*
X13738991Y-11775936D02*
X13729468Y-11785460D01*
X13729468Y-11785460D02*
X13710420Y-11794984D01*
X13710420Y-11794984D02*
X13662801Y-11794984D01*
X13662801Y-11794984D02*
X13643753Y-11785460D01*
X13643753Y-11785460D02*
X13634229Y-11775936D01*
X13824706Y-11614031D02*
X13834229Y-11604508D01*
X13834229Y-11604508D02*
X13853277Y-11594984D01*
X13853277Y-11594984D02*
X13900896Y-11594984D01*
X13900896Y-11594984D02*
X13919944Y-11604508D01*
X13919944Y-11604508D02*
X13929468Y-11614031D01*
X13929468Y-11614031D02*
X13938991Y-11633079D01*
X13938991Y-11633079D02*
X13938991Y-11652127D01*
X13938991Y-11652127D02*
X13929468Y-11680698D01*
X13929468Y-11680698D02*
X13815182Y-11794984D01*
X13815182Y-11794984D02*
X13938991Y-11794984D01*
X14177087Y-11794984D02*
X14177087Y-11594984D01*
X14262801Y-11794984D02*
X14262801Y-11690222D01*
X14262801Y-11690222D02*
X14253277Y-11671174D01*
X14253277Y-11671174D02*
X14234230Y-11661650D01*
X14234230Y-11661650D02*
X14205658Y-11661650D01*
X14205658Y-11661650D02*
X14186610Y-11671174D01*
X14186610Y-11671174D02*
X14177087Y-11680698D01*
X14386610Y-11794984D02*
X14367563Y-11785460D01*
X14367563Y-11785460D02*
X14358039Y-11775936D01*
X14358039Y-11775936D02*
X14348515Y-11756888D01*
X14348515Y-11756888D02*
X14348515Y-11699746D01*
X14348515Y-11699746D02*
X14358039Y-11680698D01*
X14358039Y-11680698D02*
X14367563Y-11671174D01*
X14367563Y-11671174D02*
X14386610Y-11661650D01*
X14386610Y-11661650D02*
X14415182Y-11661650D01*
X14415182Y-11661650D02*
X14434230Y-11671174D01*
X14434230Y-11671174D02*
X14443753Y-11680698D01*
X14443753Y-11680698D02*
X14453277Y-11699746D01*
X14453277Y-11699746D02*
X14453277Y-11756888D01*
X14453277Y-11756888D02*
X14443753Y-11775936D01*
X14443753Y-11775936D02*
X14434230Y-11785460D01*
X14434230Y-11785460D02*
X14415182Y-11794984D01*
X14415182Y-11794984D02*
X14386610Y-11794984D01*
X14567563Y-11794984D02*
X14548515Y-11785460D01*
X14548515Y-11785460D02*
X14538991Y-11766412D01*
X14538991Y-11766412D02*
X14538991Y-11594984D01*
X14719944Y-11785460D02*
X14700896Y-11794984D01*
X14700896Y-11794984D02*
X14662801Y-11794984D01*
X14662801Y-11794984D02*
X14643753Y-11785460D01*
X14643753Y-11785460D02*
X14634230Y-11766412D01*
X14634230Y-11766412D02*
X14634230Y-11690222D01*
X14634230Y-11690222D02*
X14643753Y-11671174D01*
X14643753Y-11671174D02*
X14662801Y-11661650D01*
X14662801Y-11661650D02*
X14700896Y-11661650D01*
X14700896Y-11661650D02*
X14719944Y-11671174D01*
X14719944Y-11671174D02*
X14729468Y-11690222D01*
X14729468Y-11690222D02*
X14729468Y-11709269D01*
X14729468Y-11709269D02*
X14634230Y-11728317D01*
X14805658Y-11785460D02*
X14824706Y-11794984D01*
X14824706Y-11794984D02*
X14862801Y-11794984D01*
X14862801Y-11794984D02*
X14881849Y-11785460D01*
X14881849Y-11785460D02*
X14891372Y-11766412D01*
X14891372Y-11766412D02*
X14891372Y-11756888D01*
X14891372Y-11756888D02*
X14881849Y-11737841D01*
X14881849Y-11737841D02*
X14862801Y-11728317D01*
X14862801Y-11728317D02*
X14834230Y-11728317D01*
X14834230Y-11728317D02*
X14815182Y-11718793D01*
X14815182Y-11718793D02*
X14805658Y-11699746D01*
X14805658Y-11699746D02*
X14805658Y-11690222D01*
X14805658Y-11690222D02*
X14815182Y-11671174D01*
X14815182Y-11671174D02*
X14834230Y-11661650D01*
X14834230Y-11661650D02*
X14862801Y-11661650D01*
X14862801Y-11661650D02*
X14881849Y-11671174D01*
X14958039Y-11871174D02*
X14967563Y-11861650D01*
X14967563Y-11861650D02*
X14986611Y-11833079D01*
X14986611Y-11833079D02*
X14996134Y-11814031D01*
X14996134Y-11814031D02*
X15005658Y-11785460D01*
X15005658Y-11785460D02*
X15015182Y-11737841D01*
X15015182Y-11737841D02*
X15015182Y-11699746D01*
X15015182Y-11699746D02*
X15005658Y-11652127D01*
X15005658Y-11652127D02*
X14996134Y-11623555D01*
X14996134Y-11623555D02*
X14986611Y-11604508D01*
X14986611Y-11604508D02*
X14967563Y-11575936D01*
X14967563Y-11575936D02*
X14958039Y-11566412D01*
M02*
