ISO-10303-21;
HEADER;
FILE_DESCRIPTION((''),'2;1');
FILE_NAME('Cuerpo1', '2026-02-18T09:44:57', (''), (''), 'ImageToStl.com STEP Converter','', '');
FILE_SCHEMA(('AUTOMOTIVE_DESIGN_CC2'));
ENDSEC;
DATA;
#1=PRODUCT_DEFINITION_CONTEXT('',#4,'design');
#2=APPLICATION_PROTOCOL_DEFINITION('INTERNATIONAL STANDARD','automotive_design',1994,#4);
#3=(GEOMETRIC_REPRESENTATION_CONTEXT(3)GLOBAL_UNCERTAINTY_ASSIGNED_CONTEXT((#5))GLOBAL_UNIT_ASSIGNED_CONTEXT((#6,#7,#8))REPRESENTATION_CONTEXT('NONE','WORKSPACE'));
#4=APPLICATION_CONTEXT(' ');
#5=UNCERTAINTY_MEASURE_WITH_UNIT(LENGTH_MEASURE(1.0E-006),#6,'','');
#6=(CONVERSION_BASED_UNIT('METRE',#10)LENGTH_UNIT()NAMED_UNIT(#11));
#7=(NAMED_UNIT(#12)PLANE_ANGLE_UNIT()SI_UNIT($,.RADIAN.));
#8=(NAMED_UNIT(#12)SOLID_ANGLE_UNIT()SI_UNIT($,.STERADIAN.));
#9=AXIS2_PLACEMENT_3D('',#14,#15,#16);
#10=LENGTH_MEASURE_WITH_UNIT(LENGTH_MEASURE(1.0),#17);
#11=DIMENSIONAL_EXPONENTS(1.0,0.0,0.0,0.0,0.0,0.0,0.0);
#12=DIMENSIONAL_EXPONENTS(0.0,0.0,0.0,0.0,0.0,0.0,0.0);
#13=PRODUCT_CONTEXT('',#4,'mechanical');
#14=CARTESIAN_POINT('',(0.0,0.0,0.0));
#15=DIRECTION('',(0.0,0.0,1.0));
#16=DIRECTION('',(1.0,0.0,0.0));
#17=(NAMED_UNIT(#11)LENGTH_UNIT()SI_UNIT(.MILLI.,.METRE.));
#18=PRESENTATION_STYLE_ASSIGNMENT((#19));
#19=SURFACE_STYLE_USAGE(.BOTH.,#20);
#20=SURFACE_SIDE_STYLE('',(#21));
#21=SURFACE_STYLE_FILL_AREA(#22);
#22=FILL_AREA_STYLE('',(#23));
#23=FILL_AREA_STYLE_COLOUR('',#24);
#24=COLOUR_RGB('',0.62745,0.62745,0.62745);
#25=PRESENTATION_STYLE_ASSIGNMENT((#26));
#26=SURFACE_STYLE_USAGE(.BOTH.,#27);
#27=SURFACE_SIDE_STYLE('',(#28));
#28=SURFACE_STYLE_FILL_AREA(#29);
#29=FILL_AREA_STYLE('',(#30));
#30=FILL_AREA_STYLE_COLOUR('',#31);
#31=COLOUR_RGB('',0.24706,0.24706,0.24706);
#32=SHAPE_DEFINITION_REPRESENTATION(#33,#34);
#33=PRODUCT_DEFINITION_SHAPE('productshape0','',#37);
#34=MANIFOLD_SURFACE_SHAPE_REPRESENTATION('',(#35,#9),#3);
#35=SHELL_BASED_SURFACE_MODEL('shell0',(#40));
#36=PRODUCT('product0','','',(#13));
#37=PRODUCT_DEFINITION('mesh0','',#38,#2);
#38=PRODUCT_DEFINITION_FORMATION_WITH_SPECIFIED_SOURCE('prodsource0','',#36,.NOT_KNOWN.);
#39=STYLED_ITEM('',(#18),#40);
#40=CLOSED_SHELL('',(#89,#111,#133,#155,#177,#199,#221,#243,#265,#287,#309,#331));
#41=CARTESIAN_POINT('',(-7,3,3));
#42=VERTEX_POINT('',#41);
#43=CARTESIAN_POINT('',(-7,3,-3));
#44=VERTEX_POINT('',#43);
#45=CARTESIAN_POINT('',(-7,-3,3));
#46=VERTEX_POINT('',#45);
#47=CARTESIAN_POINT('',(-7,-3,-3));
#48=VERTEX_POINT('',#47);
#49=CARTESIAN_POINT('',(-13,3,-3));
#50=VERTEX_POINT('',#49);
#51=CARTESIAN_POINT('',(-13,3,3));
#52=VERTEX_POINT('',#51);
#53=CARTESIAN_POINT('',(-13,-3,-3));
#54=VERTEX_POINT('',#53);
#55=CARTESIAN_POINT('',(-13,-3,3));
#56=VERTEX_POINT('',#55);
#57=CARTESIAN_POINT('',(-13,3,-3));
#58=VERTEX_POINT('',#57);
#59=CARTESIAN_POINT('',(-7,3,-3));
#60=VERTEX_POINT('',#59);
#61=CARTESIAN_POINT('',(-13,3,3));
#62=VERTEX_POINT('',#61);
#63=CARTESIAN_POINT('',(-7,3,3));
#64=VERTEX_POINT('',#63);
#65=CARTESIAN_POINT('',(-13,-3,3));
#66=VERTEX_POINT('',#65);
#67=CARTESIAN_POINT('',(-7,-3,3));
#68=VERTEX_POINT('',#67);
#69=CARTESIAN_POINT('',(-13,-3,-3));
#70=VERTEX_POINT('',#69);
#71=CARTESIAN_POINT('',(-7,-3,-3));
#72=VERTEX_POINT('',#71);
#73=CARTESIAN_POINT('',(-13,3,3));
#74=VERTEX_POINT('',#73);
#75=CARTESIAN_POINT('',(-7,3,3));
#76=VERTEX_POINT('',#75);
#77=CARTESIAN_POINT('',(-13,-3,3));
#78=VERTEX_POINT('',#77);
#79=CARTESIAN_POINT('',(-7,-3,3));
#80=VERTEX_POINT('',#79);
#81=CARTESIAN_POINT('',(-7,3,-3));
#82=VERTEX_POINT('',#81);
#83=CARTESIAN_POINT('',(-13,3,-3));
#84=VERTEX_POINT('',#83);
#85=CARTESIAN_POINT('',(-7,-3,-3));
#86=VERTEX_POINT('',#85);
#87=CARTESIAN_POINT('',(-13,-3,-3));
#88=VERTEX_POINT('',#87);
#89=FACE_SURFACE('',(#94),#90,.T.);
#90=PLANE('',#91);
#91=AXIS2_PLACEMENT_3D('',#41,#92,#93);
#92=DIRECTION('',(1,0,0));
#93=DIRECTION('',(0,-1,0));
#94=FACE_BOUND('',#95,.T.);
#95=EDGE_LOOP('',(#96,#97,#98));
#96=ORIENTED_EDGE('',*,*,#99,.T.);
#97=ORIENTED_EDGE('',*,*,#100,.T.);
#98=ORIENTED_EDGE('',*,*,#101,.T.);
#99=EDGE_CURVE('',#42,#46,#102,.F.);
#100=EDGE_CURVE('',#46,#44,#103,.T.);
#101=EDGE_CURVE('',#44,#42,#104,.T.);
#102=LINE('',#41,#105);
#103=LINE('',#45,#106);
#104=LINE('',#43,#107);
#105=VECTOR('',#108,1.0);
#106=VECTOR('',#109,1.0);
#107=VECTOR('',#110,1.0);
#108=DIRECTION('',(0,-1,0));
#109=DIRECTION('',(0,0.7071067811865476,-0.7071067811865476));
#110=DIRECTION('',(0,0,1));
#111=FACE_SURFACE('',(#116),#112,.T.);
#112=PLANE('',#113);
#113=AXIS2_PLACEMENT_3D('',#45,#114,#115);
#114=DIRECTION('',(1,0,0));
#115=DIRECTION('',(0,0,-1));
#116=FACE_BOUND('',#117,.T.);
#117=EDGE_LOOP('',(#118,#119,#120));
#118=ORIENTED_EDGE('',*,*,#121,.T.);
#119=ORIENTED_EDGE('',*,*,#122,.T.);
#120=ORIENTED_EDGE('',*,*,#123,.T.);
#121=EDGE_CURVE('',#46,#48,#124,.F.);
#122=EDGE_CURVE('',#48,#44,#125,.T.);
#123=EDGE_CURVE('',#44,#46,#126,.T.);
#124=LINE('',#45,#127);
#125=LINE('',#47,#128);
#126=LINE('',#43,#129);
#127=VECTOR('',#130,1.0);
#128=VECTOR('',#131,1.0);
#129=VECTOR('',#132,1.0);
#130=DIRECTION('',(0,0,-1));
#131=DIRECTION('',(0,1,0));
#132=DIRECTION('',(0,-0.7071067811865476,0.7071067811865476));
#133=FACE_SURFACE('',(#138),#134,.T.);
#134=PLANE('',#135);
#135=AXIS2_PLACEMENT_3D('',#49,#136,#137);
#136=DIRECTION('',(-1,0,0));
#137=DIRECTION('',(0,-1,0));
#138=FACE_BOUND('',#139,.T.);
#139=EDGE_LOOP('',(#140,#141,#142));
#140=ORIENTED_EDGE('',*,*,#143,.T.);
#141=ORIENTED_EDGE('',*,*,#144,.T.);
#142=ORIENTED_EDGE('',*,*,#145,.T.);
#143=EDGE_CURVE('',#50,#54,#146,.F.);
#144=EDGE_CURVE('',#54,#52,#147,.T.);
#145=EDGE_CURVE('',#52,#50,#148,.T.);
#146=LINE('',#49,#149);
#147=LINE('',#53,#150);
#148=LINE('',#51,#151);
#149=VECTOR('',#152,1.0);
#150=VECTOR('',#153,1.0);
#151=VECTOR('',#154,1.0);
#152=DIRECTION('',(0,-1,0));
#153=DIRECTION('',(0,0.7071067811865476,0.7071067811865476));
#154=DIRECTION('',(0,0,-1));
#155=FACE_SURFACE('',(#160),#156,.T.);
#156=PLANE('',#157);
#157=AXIS2_PLACEMENT_3D('',#53,#158,#159);
#158=DIRECTION('',(-1,0,0));
#159=DIRECTION('',(0,0,1));
#160=FACE_BOUND('',#161,.T.);
#161=EDGE_LOOP('',(#162,#163,#164));
#162=ORIENTED_EDGE('',*,*,#165,.T.);
#163=ORIENTED_EDGE('',*,*,#166,.T.);
#164=ORIENTED_EDGE('',*,*,#167,.T.);
#165=EDGE_CURVE('',#54,#56,#168,.F.);
#166=EDGE_CURVE('',#56,#52,#169,.T.);
#167=EDGE_CURVE('',#52,#54,#170,.T.);
#168=LINE('',#53,#171);
#169=LINE('',#55,#172);
#170=LINE('',#51,#173);
#171=VECTOR('',#174,1.0);
#172=VECTOR('',#175,1.0);
#173=VECTOR('',#176,1.0);
#174=DIRECTION('',(0,0,1));
#175=DIRECTION('',(0,1,0));
#176=DIRECTION('',(0,-0.7071067811865476,-0.7071067811865476));
#177=FACE_SURFACE('',(#182),#178,.T.);
#178=PLANE('',#179);
#179=AXIS2_PLACEMENT_3D('',#57,#180,#181);
#180=DIRECTION('',(0,1,0));
#181=DIRECTION('',(0,0,1));
#182=FACE_BOUND('',#183,.T.);
#183=EDGE_LOOP('',(#184,#185,#186));
#184=ORIENTED_EDGE('',*,*,#187,.T.);
#185=ORIENTED_EDGE('',*,*,#188,.T.);
#186=ORIENTED_EDGE('',*,*,#189,.T.);
#187=EDGE_CURVE('',#58,#62,#190,.F.);
#188=EDGE_CURVE('',#62,#60,#191,.T.);
#189=EDGE_CURVE('',#60,#58,#192,.T.);
#190=LINE('',#57,#193);
#191=LINE('',#61,#194);
#192=LINE('',#59,#195);
#193=VECTOR('',#196,1.0);
#194=VECTOR('',#197,1.0);
#195=VECTOR('',#198,1.0);
#196=DIRECTION('',(0,0,1));
#197=DIRECTION('',(0.7071067811865476,0,-0.7071067811865476));
#198=DIRECTION('',(-1,0,0));
#199=FACE_SURFACE('',(#204),#200,.T.);
#200=PLANE('',#201);
#201=AXIS2_PLACEMENT_3D('',#61,#202,#203);
#202=DIRECTION('',(-0,1,0));
#203=DIRECTION('',(1,0,0));
#204=FACE_BOUND('',#205,.T.);
#205=EDGE_LOOP('',(#206,#207,#208));
#206=ORIENTED_EDGE('',*,*,#209,.T.);
#207=ORIENTED_EDGE('',*,*,#210,.T.);
#208=ORIENTED_EDGE('',*,*,#211,.T.);
#209=EDGE_CURVE('',#62,#64,#212,.F.);
#210=EDGE_CURVE('',#64,#60,#213,.T.);
#211=EDGE_CURVE('',#60,#62,#214,.T.);
#212=LINE('',#61,#215);
#213=LINE('',#63,#216);
#214=LINE('',#59,#217);
#215=VECTOR('',#218,1.0);
#216=VECTOR('',#219,1.0);
#217=VECTOR('',#220,1.0);
#218=DIRECTION('',(1,0,0));
#219=DIRECTION('',(0,0,-1));
#220=DIRECTION('',(-0.7071067811865476,0,0.7071067811865476));
#221=FACE_SURFACE('',(#226),#222,.T.);
#222=PLANE('',#223);
#223=AXIS2_PLACEMENT_3D('',#65,#224,#225);
#224=DIRECTION('',(0,-1,0));
#225=DIRECTION('',(0,0,-1));
#226=FACE_BOUND('',#227,.T.);
#227=EDGE_LOOP('',(#228,#229,#230));
#228=ORIENTED_EDGE('',*,*,#231,.T.);
#229=ORIENTED_EDGE('',*,*,#232,.T.);
#230=ORIENTED_EDGE('',*,*,#233,.T.);
#231=EDGE_CURVE('',#66,#70,#234,.F.);
#232=EDGE_CURVE('',#70,#68,#235,.T.);
#233=EDGE_CURVE('',#68,#66,#236,.T.);
#234=LINE('',#65,#237);
#235=LINE('',#69,#238);
#236=LINE('',#67,#239);
#237=VECTOR('',#240,1.0);
#238=VECTOR('',#241,1.0);
#239=VECTOR('',#242,1.0);
#240=DIRECTION('',(0,0,-1));
#241=DIRECTION('',(0.7071067811865476,0,0.7071067811865476));
#242=DIRECTION('',(-1,0,0));
#243=FACE_SURFACE('',(#248),#244,.T.);
#244=PLANE('',#245);
#245=AXIS2_PLACEMENT_3D('',#69,#246,#247);
#246=DIRECTION('',(0,-1,0));
#247=DIRECTION('',(1,0,0));
#248=FACE_BOUND('',#249,.T.);
#249=EDGE_LOOP('',(#250,#251,#252));
#250=ORIENTED_EDGE('',*,*,#253,.T.);
#251=ORIENTED_EDGE('',*,*,#254,.T.);
#252=ORIENTED_EDGE('',*,*,#255,.T.);
#253=EDGE_CURVE('',#70,#72,#256,.F.);
#254=EDGE_CURVE('',#72,#68,#257,.T.);
#255=EDGE_CURVE('',#68,#70,#258,.T.);
#256=LINE('',#69,#259);
#257=LINE('',#71,#260);
#258=LINE('',#67,#261);
#259=VECTOR('',#262,1.0);
#260=VECTOR('',#263,1.0);
#261=VECTOR('',#264,1.0);
#262=DIRECTION('',(1,0,0));
#263=DIRECTION('',(0,0,1));
#264=DIRECTION('',(-0.7071067811865476,0,-0.7071067811865476));
#265=FACE_SURFACE('',(#270),#266,.T.);
#266=PLANE('',#267);
#267=AXIS2_PLACEMENT_3D('',#73,#268,#269);
#268=DIRECTION('',(-0,0,1));
#269=DIRECTION('',(0,-1,0));
#270=FACE_BOUND('',#271,.T.);
#271=EDGE_LOOP('',(#272,#273,#274));
#272=ORIENTED_EDGE('',*,*,#275,.T.);
#273=ORIENTED_EDGE('',*,*,#276,.T.);
#274=ORIENTED_EDGE('',*,*,#277,.T.);
#275=EDGE_CURVE('',#74,#78,#278,.F.);
#276=EDGE_CURVE('',#78,#76,#279,.T.);
#277=EDGE_CURVE('',#76,#74,#280,.T.);
#278=LINE('',#73,#281);
#279=LINE('',#77,#282);
#280=LINE('',#75,#283);
#281=VECTOR('',#284,1.0);
#282=VECTOR('',#285,1.0);
#283=VECTOR('',#286,1.0);
#284=DIRECTION('',(0,-1,0));
#285=DIRECTION('',(0.7071067811865476,0.7071067811865476,0));
#286=DIRECTION('',(-1,0,0));
#287=FACE_SURFACE('',(#292),#288,.T.);
#288=PLANE('',#289);
#289=AXIS2_PLACEMENT_3D('',#77,#290,#291);
#290=DIRECTION('',(0,0,1));
#291=DIRECTION('',(1,0,0));
#292=FACE_BOUND('',#293,.T.);
#293=EDGE_LOOP('',(#294,#295,#296));
#294=ORIENTED_EDGE('',*,*,#297,.T.);
#295=ORIENTED_EDGE('',*,*,#298,.T.);
#296=ORIENTED_EDGE('',*,*,#299,.T.);
#297=EDGE_CURVE('',#78,#80,#300,.F.);
#298=EDGE_CURVE('',#80,#76,#301,.T.);
#299=EDGE_CURVE('',#76,#78,#302,.T.);
#300=LINE('',#77,#303);
#301=LINE('',#79,#304);
#302=LINE('',#75,#305);
#303=VECTOR('',#306,1.0);
#304=VECTOR('',#307,1.0);
#305=VECTOR('',#308,1.0);
#306=DIRECTION('',(1,0,0));
#307=DIRECTION('',(0,1,0));
#308=DIRECTION('',(-0.7071067811865476,-0.7071067811865476,0));
#309=FACE_SURFACE('',(#314),#310,.T.);
#310=PLANE('',#311);
#311=AXIS2_PLACEMENT_3D('',#81,#312,#313);
#312=DIRECTION('',(-0,-0,-1));
#313=DIRECTION('',(0,-1,0));
#314=FACE_BOUND('',#315,.T.);
#315=EDGE_LOOP('',(#316,#317,#318));
#316=ORIENTED_EDGE('',*,*,#319,.T.);
#317=ORIENTED_EDGE('',*,*,#320,.T.);
#318=ORIENTED_EDGE('',*,*,#321,.T.);
#319=EDGE_CURVE('',#82,#86,#322,.F.);
#320=EDGE_CURVE('',#86,#84,#323,.T.);
#321=EDGE_CURVE('',#84,#82,#324,.T.);
#322=LINE('',#81,#325);
#323=LINE('',#85,#326);
#324=LINE('',#83,#327);
#325=VECTOR('',#328,1.0);
#326=VECTOR('',#329,1.0);
#327=VECTOR('',#330,1.0);
#328=DIRECTION('',(0,-1,0));
#329=DIRECTION('',(-0.7071067811865476,0.7071067811865476,0));
#330=DIRECTION('',(1,0,0));
#331=FACE_SURFACE('',(#336),#332,.T.);
#332=PLANE('',#333);
#333=AXIS2_PLACEMENT_3D('',#85,#334,#335);
#334=DIRECTION('',(0,0,-1));
#335=DIRECTION('',(-1,0,0));
#336=FACE_BOUND('',#337,.T.);
#337=EDGE_LOOP('',(#338,#339,#340));
#338=ORIENTED_EDGE('',*,*,#341,.T.);
#339=ORIENTED_EDGE('',*,*,#342,.T.);
#340=ORIENTED_EDGE('',*,*,#343,.T.);
#341=EDGE_CURVE('',#86,#88,#344,.F.);
#342=EDGE_CURVE('',#88,#84,#345,.T.);
#343=EDGE_CURVE('',#84,#86,#346,.T.);
#344=LINE('',#85,#347);
#345=LINE('',#87,#348);
#346=LINE('',#83,#349);
#347=VECTOR('',#350,1.0);
#348=VECTOR('',#351,1.0);
#349=VECTOR('',#352,1.0);
#350=DIRECTION('',(-1,0,0));
#351=DIRECTION('',(0,1,0));
#352=DIRECTION('',(0.7071067811865476,-0.7071067811865476,0));
#353=SHAPE_DEFINITION_REPRESENTATION(#354,#355);
#354=PRODUCT_DEFINITION_SHAPE('productshape1','',#358);
#355=MANIFOLD_SURFACE_SHAPE_REPRESENTATION('',(#356,#9),#3);
#356=SHELL_BASED_SURFACE_MODEL('shell1',(#361));
#357=PRODUCT('product1','','',(#13));
#358=PRODUCT_DEFINITION('mesh1','',#359,#2);
#359=PRODUCT_DEFINITION_FORMATION_WITH_SPECIFIED_SOURCE('prodsource1','',#357,.NOT_KNOWN.);
#360=STYLED_ITEM('',(#25),#361);
#361=CLOSED_SHELL('',(#410,#432,#454,#476,#498,#520,#542,#564,#586,#608,#630,#652));
#362=CARTESIAN_POINT('',(3,3,3));
#363=VERTEX_POINT('',#362);
#364=CARTESIAN_POINT('',(3,3,-3));
#365=VERTEX_POINT('',#364);
#366=CARTESIAN_POINT('',(3,-3,3));
#367=VERTEX_POINT('',#366);
#368=CARTESIAN_POINT('',(3,-3,-3));
#369=VERTEX_POINT('',#368);
#370=CARTESIAN_POINT('',(-3,3,-3));
#371=VERTEX_POINT('',#370);
#372=CARTESIAN_POINT('',(-3,3,3));
#373=VERTEX_POINT('',#372);
#374=CARTESIAN_POINT('',(-3,-3,-3));
#375=VERTEX_POINT('',#374);
#376=CARTESIAN_POINT('',(-3,-3,3));
#377=VERTEX_POINT('',#376);
#378=CARTESIAN_POINT('',(-3,3,-3));
#379=VERTEX_POINT('',#378);
#380=CARTESIAN_POINT('',(3,3,-3));
#381=VERTEX_POINT('',#380);
#382=CARTESIAN_POINT('',(-3,3,3));
#383=VERTEX_POINT('',#382);
#384=CARTESIAN_POINT('',(3,3,3));
#385=VERTEX_POINT('',#384);
#386=CARTESIAN_POINT('',(-3,-3,3));
#387=VERTEX_POINT('',#386);
#388=CARTESIAN_POINT('',(3,-3,3));
#389=VERTEX_POINT('',#388);
#390=CARTESIAN_POINT('',(-3,-3,-3));
#391=VERTEX_POINT('',#390);
#392=CARTESIAN_POINT('',(3,-3,-3));
#393=VERTEX_POINT('',#392);
#394=CARTESIAN_POINT('',(-3,3,3));
#395=VERTEX_POINT('',#394);
#396=CARTESIAN_POINT('',(3,3,3));
#397=VERTEX_POINT('',#396);
#398=CARTESIAN_POINT('',(-3,-3,3));
#399=VERTEX_POINT('',#398);
#400=CARTESIAN_POINT('',(3,-3,3));
#401=VERTEX_POINT('',#400);
#402=CARTESIAN_POINT('',(3,3,-3));
#403=VERTEX_POINT('',#402);
#404=CARTESIAN_POINT('',(-3,3,-3));
#405=VERTEX_POINT('',#404);
#406=CARTESIAN_POINT('',(3,-3,-3));
#407=VERTEX_POINT('',#406);
#408=CARTESIAN_POINT('',(-3,-3,-3));
#409=VERTEX_POINT('',#408);
#410=FACE_SURFACE('',(#415),#411,.T.);
#411=PLANE('',#412);
#412=AXIS2_PLACEMENT_3D('',#362,#413,#414);
#413=DIRECTION('',(1,0,0));
#414=DIRECTION('',(0,-1,0));
#415=FACE_BOUND('',#416,.T.);
#416=EDGE_LOOP('',(#417,#418,#419));
#417=ORIENTED_EDGE('',*,*,#420,.T.);
#418=ORIENTED_EDGE('',*,*,#421,.T.);
#419=ORIENTED_EDGE('',*,*,#422,.T.);
#420=EDGE_CURVE('',#363,#367,#423,.F.);
#421=EDGE_CURVE('',#367,#365,#424,.T.);
#422=EDGE_CURVE('',#365,#363,#425,.T.);
#423=LINE('',#362,#426);
#424=LINE('',#366,#427);
#425=LINE('',#364,#428);
#426=VECTOR('',#429,1.0);
#427=VECTOR('',#430,1.0);
#428=VECTOR('',#431,1.0);
#429=DIRECTION('',(0,-1,0));
#430=DIRECTION('',(0,0.7071067811865476,-0.7071067811865476));
#431=DIRECTION('',(0,0,1));
#432=FACE_SURFACE('',(#437),#433,.T.);
#433=PLANE('',#434);
#434=AXIS2_PLACEMENT_3D('',#366,#435,#436);
#435=DIRECTION('',(1,0,0));
#436=DIRECTION('',(0,0,-1));
#437=FACE_BOUND('',#438,.T.);
#438=EDGE_LOOP('',(#439,#440,#441));
#439=ORIENTED_EDGE('',*,*,#442,.T.);
#440=ORIENTED_EDGE('',*,*,#443,.T.);
#441=ORIENTED_EDGE('',*,*,#444,.T.);
#442=EDGE_CURVE('',#367,#369,#445,.F.);
#443=EDGE_CURVE('',#369,#365,#446,.T.);
#444=EDGE_CURVE('',#365,#367,#447,.T.);
#445=LINE('',#366,#448);
#446=LINE('',#368,#449);
#447=LINE('',#364,#450);
#448=VECTOR('',#451,1.0);
#449=VECTOR('',#452,1.0);
#450=VECTOR('',#453,1.0);
#451=DIRECTION('',(0,0,-1));
#452=DIRECTION('',(0,1,0));
#453=DIRECTION('',(0,-0.7071067811865476,0.7071067811865476));
#454=FACE_SURFACE('',(#459),#455,.T.);
#455=PLANE('',#456);
#456=AXIS2_PLACEMENT_3D('',#370,#457,#458);
#457=DIRECTION('',(-1,0,0));
#458=DIRECTION('',(0,-1,0));
#459=FACE_BOUND('',#460,.T.);
#460=EDGE_LOOP('',(#461,#462,#463));
#461=ORIENTED_EDGE('',*,*,#464,.T.);
#462=ORIENTED_EDGE('',*,*,#465,.T.);
#463=ORIENTED_EDGE('',*,*,#466,.T.);
#464=EDGE_CURVE('',#371,#375,#467,.F.);
#465=EDGE_CURVE('',#375,#373,#468,.T.);
#466=EDGE_CURVE('',#373,#371,#469,.T.);
#467=LINE('',#370,#470);
#468=LINE('',#374,#471);
#469=LINE('',#372,#472);
#470=VECTOR('',#473,1.0);
#471=VECTOR('',#474,1.0);
#472=VECTOR('',#475,1.0);
#473=DIRECTION('',(0,-1,0));
#474=DIRECTION('',(0,0.7071067811865476,0.7071067811865476));
#475=DIRECTION('',(0,0,-1));
#476=FACE_SURFACE('',(#481),#477,.T.);
#477=PLANE('',#478);
#478=AXIS2_PLACEMENT_3D('',#374,#479,#480);
#479=DIRECTION('',(-1,0,0));
#480=DIRECTION('',(0,0,1));
#481=FACE_BOUND('',#482,.T.);
#482=EDGE_LOOP('',(#483,#484,#485));
#483=ORIENTED_EDGE('',*,*,#486,.T.);
#484=ORIENTED_EDGE('',*,*,#487,.T.);
#485=ORIENTED_EDGE('',*,*,#488,.T.);
#486=EDGE_CURVE('',#375,#377,#489,.F.);
#487=EDGE_CURVE('',#377,#373,#490,.T.);
#488=EDGE_CURVE('',#373,#375,#491,.T.);
#489=LINE('',#374,#492);
#490=LINE('',#376,#493);
#491=LINE('',#372,#494);
#492=VECTOR('',#495,1.0);
#493=VECTOR('',#496,1.0);
#494=VECTOR('',#497,1.0);
#495=DIRECTION('',(0,0,1));
#496=DIRECTION('',(0,1,0));
#497=DIRECTION('',(0,-0.7071067811865476,-0.7071067811865476));
#498=FACE_SURFACE('',(#503),#499,.T.);
#499=PLANE('',#500);
#500=AXIS2_PLACEMENT_3D('',#378,#501,#502);
#501=DIRECTION('',(0,1,0));
#502=DIRECTION('',(0,0,1));
#503=FACE_BOUND('',#504,.T.);
#504=EDGE_LOOP('',(#505,#506,#507));
#505=ORIENTED_EDGE('',*,*,#508,.T.);
#506=ORIENTED_EDGE('',*,*,#509,.T.);
#507=ORIENTED_EDGE('',*,*,#510,.T.);
#508=EDGE_CURVE('',#379,#383,#511,.F.);
#509=EDGE_CURVE('',#383,#381,#512,.T.);
#510=EDGE_CURVE('',#381,#379,#513,.T.);
#511=LINE('',#378,#514);
#512=LINE('',#382,#515);
#513=LINE('',#380,#516);
#514=VECTOR('',#517,1.0);
#515=VECTOR('',#518,1.0);
#516=VECTOR('',#519,1.0);
#517=DIRECTION('',(0,0,1));
#518=DIRECTION('',(0.7071067811865476,0,-0.7071067811865476));
#519=DIRECTION('',(-1,0,0));
#520=FACE_SURFACE('',(#525),#521,.T.);
#521=PLANE('',#522);
#522=AXIS2_PLACEMENT_3D('',#382,#523,#524);
#523=DIRECTION('',(-0,1,0));
#524=DIRECTION('',(1,0,0));
#525=FACE_BOUND('',#526,.T.);
#526=EDGE_LOOP('',(#527,#528,#529));
#527=ORIENTED_EDGE('',*,*,#530,.T.);
#528=ORIENTED_EDGE('',*,*,#531,.T.);
#529=ORIENTED_EDGE('',*,*,#532,.T.);
#530=EDGE_CURVE('',#383,#385,#533,.F.);
#531=EDGE_CURVE('',#385,#381,#534,.T.);
#532=EDGE_CURVE('',#381,#383,#535,.T.);
#533=LINE('',#382,#536);
#534=LINE('',#384,#537);
#535=LINE('',#380,#538);
#536=VECTOR('',#539,1.0);
#537=VECTOR('',#540,1.0);
#538=VECTOR('',#541,1.0);
#539=DIRECTION('',(1,0,0));
#540=DIRECTION('',(0,0,-1));
#541=DIRECTION('',(-0.7071067811865476,0,0.7071067811865476));
#542=FACE_SURFACE('',(#547),#543,.T.);
#543=PLANE('',#544);
#544=AXIS2_PLACEMENT_3D('',#386,#545,#546);
#545=DIRECTION('',(0,-1,0));
#546=DIRECTION('',(0,0,-1));
#547=FACE_BOUND('',#548,.T.);
#548=EDGE_LOOP('',(#549,#550,#551));
#549=ORIENTED_EDGE('',*,*,#552,.T.);
#550=ORIENTED_EDGE('',*,*,#553,.T.);
#551=ORIENTED_EDGE('',*,*,#554,.T.);
#552=EDGE_CURVE('',#387,#391,#555,.F.);
#553=EDGE_CURVE('',#391,#389,#556,.T.);
#554=EDGE_CURVE('',#389,#387,#557,.T.);
#555=LINE('',#386,#558);
#556=LINE('',#390,#559);
#557=LINE('',#388,#560);
#558=VECTOR('',#561,1.0);
#559=VECTOR('',#562,1.0);
#560=VECTOR('',#563,1.0);
#561=DIRECTION('',(0,0,-1));
#562=DIRECTION('',(0.7071067811865476,0,0.7071067811865476));
#563=DIRECTION('',(-1,0,0));
#564=FACE_SURFACE('',(#569),#565,.T.);
#565=PLANE('',#566);
#566=AXIS2_PLACEMENT_3D('',#390,#567,#568);
#567=DIRECTION('',(0,-1,0));
#568=DIRECTION('',(1,0,0));
#569=FACE_BOUND('',#570,.T.);
#570=EDGE_LOOP('',(#571,#572,#573));
#571=ORIENTED_EDGE('',*,*,#574,.T.);
#572=ORIENTED_EDGE('',*,*,#575,.T.);
#573=ORIENTED_EDGE('',*,*,#576,.T.);
#574=EDGE_CURVE('',#391,#393,#577,.F.);
#575=EDGE_CURVE('',#393,#389,#578,.T.);
#576=EDGE_CURVE('',#389,#391,#579,.T.);
#577=LINE('',#390,#580);
#578=LINE('',#392,#581);
#579=LINE('',#388,#582);
#580=VECTOR('',#583,1.0);
#581=VECTOR('',#584,1.0);
#582=VECTOR('',#585,1.0);
#583=DIRECTION('',(1,0,0));
#584=DIRECTION('',(0,0,1));
#585=DIRECTION('',(-0.7071067811865476,0,-0.7071067811865476));
#586=FACE_SURFACE('',(#591),#587,.T.);
#587=PLANE('',#588);
#588=AXIS2_PLACEMENT_3D('',#394,#589,#590);
#589=DIRECTION('',(-0,0,1));
#590=DIRECTION('',(0,-1,0));
#591=FACE_BOUND('',#592,.T.);
#592=EDGE_LOOP('',(#593,#594,#595));
#593=ORIENTED_EDGE('',*,*,#596,.T.);
#594=ORIENTED_EDGE('',*,*,#597,.T.);
#595=ORIENTED_EDGE('',*,*,#598,.T.);
#596=EDGE_CURVE('',#395,#399,#599,.F.);
#597=EDGE_CURVE('',#399,#397,#600,.T.);
#598=EDGE_CURVE('',#397,#395,#601,.T.);
#599=LINE('',#394,#602);
#600=LINE('',#398,#603);
#601=LINE('',#396,#604);
#602=VECTOR('',#605,1.0);
#603=VECTOR('',#606,1.0);
#604=VECTOR('',#607,1.0);
#605=DIRECTION('',(0,-1,0));
#606=DIRECTION('',(0.7071067811865476,0.7071067811865476,0));
#607=DIRECTION('',(-1,0,0));
#608=FACE_SURFACE('',(#613),#609,.T.);
#609=PLANE('',#610);
#610=AXIS2_PLACEMENT_3D('',#398,#611,#612);
#611=DIRECTION('',(0,0,1));
#612=DIRECTION('',(1,0,0));
#613=FACE_BOUND('',#614,.T.);
#614=EDGE_LOOP('',(#615,#616,#617));
#615=ORIENTED_EDGE('',*,*,#618,.T.);
#616=ORIENTED_EDGE('',*,*,#619,.T.);
#617=ORIENTED_EDGE('',*,*,#620,.T.);
#618=EDGE_CURVE('',#399,#401,#621,.F.);
#619=EDGE_CURVE('',#401,#397,#622,.T.);
#620=EDGE_CURVE('',#397,#399,#623,.T.);
#621=LINE('',#398,#624);
#622=LINE('',#400,#625);
#623=LINE('',#396,#626);
#624=VECTOR('',#627,1.0);
#625=VECTOR('',#628,1.0);
#626=VECTOR('',#629,1.0);
#627=DIRECTION('',(1,0,0));
#628=DIRECTION('',(0,1,0));
#629=DIRECTION('',(-0.7071067811865476,-0.7071067811865476,0));
#630=FACE_SURFACE('',(#635),#631,.T.);
#631=PLANE('',#632);
#632=AXIS2_PLACEMENT_3D('',#402,#633,#634);
#633=DIRECTION('',(-0,-0,-1));
#634=DIRECTION('',(0,-1,0));
#635=FACE_BOUND('',#636,.T.);
#636=EDGE_LOOP('',(#637,#638,#639));
#637=ORIENTED_EDGE('',*,*,#640,.T.);
#638=ORIENTED_EDGE('',*,*,#641,.T.);
#639=ORIENTED_EDGE('',*,*,#642,.T.);
#640=EDGE_CURVE('',#403,#407,#643,.F.);
#641=EDGE_CURVE('',#407,#405,#644,.T.);
#642=EDGE_CURVE('',#405,#403,#645,.T.);
#643=LINE('',#402,#646);
#644=LINE('',#406,#647);
#645=LINE('',#404,#648);
#646=VECTOR('',#649,1.0);
#647=VECTOR('',#650,1.0);
#648=VECTOR('',#651,1.0);
#649=DIRECTION('',(0,-1,0));
#650=DIRECTION('',(-0.7071067811865476,0.7071067811865476,0));
#651=DIRECTION('',(1,0,0));
#652=FACE_SURFACE('',(#657),#653,.T.);
#653=PLANE('',#654);
#654=AXIS2_PLACEMENT_3D('',#406,#655,#656);
#655=DIRECTION('',(0,0,-1));
#656=DIRECTION('',(-1,0,0));
#657=FACE_BOUND('',#658,.T.);
#658=EDGE_LOOP('',(#659,#660,#661));
#659=ORIENTED_EDGE('',*,*,#662,.T.);
#660=ORIENTED_EDGE('',*,*,#663,.T.);
#661=ORIENTED_EDGE('',*,*,#664,.T.);
#662=EDGE_CURVE('',#407,#409,#665,.F.);
#663=EDGE_CURVE('',#409,#405,#666,.T.);
#664=EDGE_CURVE('',#405,#407,#667,.T.);
#665=LINE('',#406,#668);
#666=LINE('',#408,#669);
#667=LINE('',#404,#670);
#668=VECTOR('',#671,1.0);
#669=VECTOR('',#672,1.0);
#670=VECTOR('',#673,1.0);
#671=DIRECTION('',(-1,0,0));
#672=DIRECTION('',(0,1,0));
#673=DIRECTION('',(0.7071067811865476,-0.7071067811865476,0));
ENDSEC;
END-ISO-10303-21;
